ISO-10303-21;
HEADER;
/* Generated by software containing ST-Developer
 * from STEP Tools, Inc. (www.steptools.com) 
 */
/* OPTION: using custom renumber hook */

FILE_DESCRIPTION(
/* description */ ('STEP AP242 Edition 2',
'CAx-IF Rec.Pracs.---Representation and Presentation of Product Manufa
cturing Information (PMI)---4.0---2014-10-13',
'CAx-IF Rec.Pracs.---3D Tessellated Geometry---0.4---2014-09-14','2;1',
'CAx-IF Rec.Pracs.---User Defined Attributes---1.5---2016-08-15'),
/* implementation_level */ '2;1');

FILE_NAME(
/* name */ 'neewer-macro-slide-GM-MP2 - Outer Focus Knob',
/* time_stamp */ '2026-09-20T22:59:43Z',
/* author */ (''),
/* organization */ (''),
/* preprocessor_version */ 'ST-DEVELOPER v20',
/* originating_system */ 'ONSHAPE BY PTC INC, 1.221',
/* authorisation */ '  ');

FILE_SCHEMA (('AP242_MANAGED_MODEL_BASED_3D_ENGINEERING_MIM_LF { 1 0 10303 442 3 1 4 }'));
ENDSEC;

DATA;
#10=SHAPE_REPRESENTATION_RELATIONSHIP('','',#643,#11);
#11=ADVANCED_BREP_SHAPE_REPRESENTATION('',(#641),#1455);
#12=LINE('',#1110,#28);
#13=LINE('',#1128,#29);
#14=LINE('',#1139,#30);
#15=LINE('',#1173,#31);
#16=LINE('',#1184,#32);
#17=LINE('',#1218,#33);
#18=LINE('',#1229,#34);
#19=LINE('',#1263,#35);
#20=LINE('',#1274,#36);
#21=LINE('',#1308,#37);
#22=LINE('',#1319,#38);
#23=LINE('',#1353,#39);
#24=LINE('',#1364,#40);
#25=LINE('',#1398,#41);
#26=LINE('',#1409,#42);
#27=LINE('',#1443,#43);
#28=VECTOR('',#718,1.);
#29=VECTOR('',#721,1.);
#30=VECTOR('',#722,1.);
#31=VECTOR('',#725,1.);
#32=VECTOR('',#726,1.);
#33=VECTOR('',#729,1.);
#34=VECTOR('',#730,1.);
#35=VECTOR('',#733,1.);
#36=VECTOR('',#734,1.);
#37=VECTOR('',#737,1.);
#38=VECTOR('',#738,1.);
#39=VECTOR('',#741,1.);
#40=VECTOR('',#742,1.);
#41=VECTOR('',#745,1.);
#42=VECTOR('',#746,1.);
#43=VECTOR('',#749,1.);
#44=B_SPLINE_SURFACE_WITH_KNOTS('',3,1,((#1094,#1095),(#1096,#1097),(#1098,
#1099),(#1100,#1101),(#1102,#1103),(#1104,#1105),(#1106,#1107),(#1108,#1109)),
 .SURF_OF_LINEAR_EXTRUSION.,.F.,.F.,.F.,(4,1,1,1,1,4),(2,2),(0.0601737947714094,
0.177652070424983,0.295130346078557,0.530086897385705,0.765043448692852,
1.),(0.,1.),.UNSPECIFIED.);
#45=B_SPLINE_SURFACE_WITH_KNOTS('',3,1,((#1120,#1121),(#1122,#1123),(#1124,
#1125),(#1126,#1127)),.SURF_OF_LINEAR_EXTRUSION.,.F.,.F.,.F.,(4,4),(2,2),
(0.06486807756272,0.217619534798653),(0.,1.),.PIECEWISE_BEZIER_KNOTS.);
#46=B_SPLINE_SURFACE_WITH_KNOTS('',3,1,((#1129,#1130),(#1131,#1132),(#1133,
#1134),(#1135,#1136),(#1137,#1138)),.SURF_OF_LINEAR_EXTRUSION.,.F.,.F.,
 .F.,(4,1,4),(2,2),(0.217619534798653,0.608809767399326,1.),(0.,1.),
 .UNSPECIFIED.);
#47=B_SPLINE_SURFACE_WITH_KNOTS('',3,1,((#1140,#1141),(#1142,#1143),(#1144,
#1145),(#1146,#1147),(#1148,#1149),(#1150,#1151),(#1152,#1153),(#1154,#1155)),
 .SURF_OF_LINEAR_EXTRUSION.,.F.,.F.,.F.,(4,1,1,1,1,4),(2,2),(0.0601737947714073,
0.177652070424982,0.295130346078556,0.530086897385705,0.765043448692854,
1.),(0.,1.),.UNSPECIFIED.);
#48=B_SPLINE_SURFACE_WITH_KNOTS('',3,1,((#1165,#1166),(#1167,#1168),(#1169,
#1170),(#1171,#1172)),.SURF_OF_LINEAR_EXTRUSION.,.F.,.F.,.F.,(4,4),(2,2),
(0.0648680775627196,0.217619534798653),(0.,1.),.PIECEWISE_BEZIER_KNOTS.);
#49=B_SPLINE_SURFACE_WITH_KNOTS('',3,1,((#1174,#1175),(#1176,#1177),(#1178,
#1179),(#1180,#1181),(#1182,#1183)),.SURF_OF_LINEAR_EXTRUSION.,.F.,.F.,
 .F.,(4,1,4),(2,2),(0.217619534798653,0.608809767399327,1.),(0.,1.),
 .UNSPECIFIED.);
#50=B_SPLINE_SURFACE_WITH_KNOTS('',3,1,((#1185,#1186),(#1187,#1188),(#1189,
#1190),(#1191,#1192),(#1193,#1194),(#1195,#1196),(#1197,#1198),(#1199,#1200)),
 .SURF_OF_LINEAR_EXTRUSION.,.F.,.F.,.F.,(4,1,1,1,1,4),(2,2),(0.0601737947714069,
0.177652070424981,0.295130346078555,0.530086897385703,0.765043448692852,
1.),(0.,1.),.UNSPECIFIED.);
#51=B_SPLINE_SURFACE_WITH_KNOTS('',3,1,((#1210,#1211),(#1212,#1213),(#1214,
#1215),(#1216,#1217)),.SURF_OF_LINEAR_EXTRUSION.,.F.,.F.,.F.,(4,4),(2,2),
(0.064868077562723,0.217619534798655),(0.,1.),.PIECEWISE_BEZIER_KNOTS.);
#52=B_SPLINE_SURFACE_WITH_KNOTS('',3,1,((#1219,#1220),(#1221,#1222),(#1223,
#1224),(#1225,#1226),(#1227,#1228)),.SURF_OF_LINEAR_EXTRUSION.,.F.,.F.,
 .F.,(4,1,4),(2,2),(0.217619534798653,0.608809767399326,1.),(0.,1.),
 .UNSPECIFIED.);
#53=B_SPLINE_SURFACE_WITH_KNOTS('',3,1,((#1230,#1231),(#1232,#1233),(#1234,
#1235),(#1236,#1237),(#1238,#1239),(#1240,#1241),(#1242,#1243),(#1244,#1245)),
 .SURF_OF_LINEAR_EXTRUSION.,.F.,.F.,.F.,(4,1,1,1,1,4),(2,2),(0.0601737947714059,
0.17765207042498,0.295130346078554,0.530086897385703,0.765043448692851,
1.),(0.,1.),.UNSPECIFIED.);
#54=B_SPLINE_SURFACE_WITH_KNOTS('',3,1,((#1255,#1256),(#1257,#1258),(#1259,
#1260),(#1261,#1262)),.SURF_OF_LINEAR_EXTRUSION.,.F.,.F.,.F.,(4,4),(2,2),
(0.0648680775627515,0.217619534798653),(0.,1.),.PIECEWISE_BEZIER_KNOTS.);
#55=B_SPLINE_SURFACE_WITH_KNOTS('',3,1,((#1264,#1265),(#1266,#1267),(#1268,
#1269),(#1270,#1271),(#1272,#1273)),.SURF_OF_LINEAR_EXTRUSION.,.F.,.F.,
 .F.,(4,1,4),(2,2),(0.217619534798653,0.608809767399326,1.),(0.,1.),
 .UNSPECIFIED.);
#56=B_SPLINE_SURFACE_WITH_KNOTS('',3,1,((#1275,#1276),(#1277,#1278),(#1279,
#1280),(#1281,#1282),(#1283,#1284),(#1285,#1286),(#1287,#1288),(#1289,#1290)),
 .SURF_OF_LINEAR_EXTRUSION.,.F.,.F.,.F.,(4,1,1,1,1,4),(2,2),(0.0601737947714078,
0.177652070424982,0.295130346078556,0.530086897385704,0.765043448692852,
1.),(0.,1.),.UNSPECIFIED.);
#57=B_SPLINE_SURFACE_WITH_KNOTS('',3,1,((#1300,#1301),(#1302,#1303),(#1304,
#1305),(#1306,#1307)),.SURF_OF_LINEAR_EXTRUSION.,.F.,.F.,.F.,(4,4),(2,2),
(0.064868077562709,0.217619534798653),(0.,1.),.PIECEWISE_BEZIER_KNOTS.);
#58=B_SPLINE_SURFACE_WITH_KNOTS('',3,1,((#1309,#1310),(#1311,#1312),(#1313,
#1314),(#1315,#1316),(#1317,#1318)),.SURF_OF_LINEAR_EXTRUSION.,.F.,.F.,
 .F.,(4,1,4),(2,2),(0.217619534798651,0.608809767399326,1.),(0.,1.),
 .UNSPECIFIED.);
#59=B_SPLINE_SURFACE_WITH_KNOTS('',3,1,((#1320,#1321),(#1322,#1323),(#1324,
#1325),(#1326,#1327),(#1328,#1329),(#1330,#1331),(#1332,#1333),(#1334,#1335)),
 .SURF_OF_LINEAR_EXTRUSION.,.F.,.F.,.F.,(4,1,1,1,1,4),(2,2),(0.0601737947714083,
0.177652070424982,0.295130346078556,0.530086897385704,0.765043448692852,
1.),(0.,1.),.UNSPECIFIED.);
#60=B_SPLINE_SURFACE_WITH_KNOTS('',3,1,((#1345,#1346),(#1347,#1348),(#1349,
#1350),(#1351,#1352)),.SURF_OF_LINEAR_EXTRUSION.,.F.,.F.,.F.,(4,4),(2,2),
(0.0648680775627067,0.217619534798653),(0.,1.),.PIECEWISE_BEZIER_KNOTS.);
#61=B_SPLINE_SURFACE_WITH_KNOTS('',3,1,((#1354,#1355),(#1356,#1357),(#1358,
#1359),(#1360,#1361),(#1362,#1363)),.SURF_OF_LINEAR_EXTRUSION.,.F.,.F.,
 .F.,(4,1,4),(2,2),(0.217619534798653,0.608809767399326,1.),(0.,1.),
 .UNSPECIFIED.);
#62=B_SPLINE_SURFACE_WITH_KNOTS('',3,1,((#1365,#1366),(#1367,#1368),(#1369,
#1370),(#1371,#1372),(#1373,#1374),(#1375,#1376),(#1377,#1378),(#1379,#1380)),
 .SURF_OF_LINEAR_EXTRUSION.,.F.,.F.,.F.,(4,1,1,1,1,4),(2,2),(0.0601737947714108,
0.177652070424985,0.295130346078558,0.530086897385706,0.765043448692853,
1.),(0.,1.),.UNSPECIFIED.);
#63=B_SPLINE_SURFACE_WITH_KNOTS('',3,1,((#1390,#1391),(#1392,#1393),(#1394,
#1395),(#1396,#1397)),.SURF_OF_LINEAR_EXTRUSION.,.F.,.F.,.F.,(4,4),(2,2),
(0.0648680775627162,0.217619534798653),(0.,1.),.PIECEWISE_BEZIER_KNOTS.);
#64=B_SPLINE_SURFACE_WITH_KNOTS('',3,1,((#1399,#1400),(#1401,#1402),(#1403,
#1404),(#1405,#1406),(#1407,#1408)),.SURF_OF_LINEAR_EXTRUSION.,.F.,.F.,
 .F.,(4,1,4),(2,2),(0.217619534798652,0.608809767399326,1.),(0.,1.),
 .UNSPECIFIED.);
#65=B_SPLINE_SURFACE_WITH_KNOTS('',3,1,((#1410,#1411),(#1412,#1413),(#1414,
#1415),(#1416,#1417),(#1418,#1419),(#1420,#1421),(#1422,#1423),(#1424,#1425)),
 .SURF_OF_LINEAR_EXTRUSION.,.F.,.F.,.F.,(4,1,1,1,1,4),(2,2),(0.0601737947714076,
0.177652070424982,0.295130346078556,0.530086897385704,0.765043448692852,
1.),(0.,1.),.UNSPECIFIED.);
#66=B_SPLINE_SURFACE_WITH_KNOTS('',3,1,((#1435,#1436),(#1437,#1438),(#1439,
#1440),(#1441,#1442)),.SURF_OF_LINEAR_EXTRUSION.,.F.,.F.,.F.,(4,4),(2,2),
(0.0648680775627197,0.217619534798653),(0.,1.),.PIECEWISE_BEZIER_KNOTS.);
#67=B_SPLINE_SURFACE_WITH_KNOTS('',3,1,((#1444,#1445),(#1446,#1447),(#1448,
#1449),(#1450,#1451),(#1452,#1453)),.SURF_OF_LINEAR_EXTRUSION.,.F.,.F.,
 .F.,(4,1,4),(2,2),(0.217619534798653,0.608809767399326,1.),(0.,1.),
 .UNSPECIFIED.);
#68=CYLINDRICAL_SURFACE('',#655,0.011);
#69=CYLINDRICAL_SURFACE('',#666,0.0102);
#70=CYLINDRICAL_SURFACE('',#667,0.0102);
#71=CYLINDRICAL_SURFACE('',#668,0.0102);
#72=CYLINDRICAL_SURFACE('',#669,0.0102);
#73=CYLINDRICAL_SURFACE('',#670,0.0102);
#74=CYLINDRICAL_SURFACE('',#671,0.0102);
#75=CYLINDRICAL_SURFACE('',#672,0.0102);
#76=CYLINDRICAL_SURFACE('',#673,0.0102);
#77=CIRCLE('',#646,0.0102);
#78=CIRCLE('',#647,0.0102);
#79=CIRCLE('',#648,0.0102);
#80=CIRCLE('',#649,0.0102);
#81=CIRCLE('',#650,0.0102);
#82=CIRCLE('',#651,0.0102);
#83=CIRCLE('',#652,0.0102);
#84=CIRCLE('',#653,0.0102);
#85=CIRCLE('',#654,0.011);
#86=CIRCLE('',#656,0.011);
#87=CIRCLE('',#658,0.0102);
#88=CIRCLE('',#659,0.0102);
#89=CIRCLE('',#660,0.0102);
#90=CIRCLE('',#661,0.0102);
#91=CIRCLE('',#662,0.0102);
#92=CIRCLE('',#663,0.0102);
#93=CIRCLE('',#664,0.0102);
#94=CIRCLE('',#665,0.0102);
#95=ORIENTED_EDGE('',*,*,#291,.F.);
#96=ORIENTED_EDGE('',*,*,#292,.F.);
#97=ORIENTED_EDGE('',*,*,#293,.T.);
#98=ORIENTED_EDGE('',*,*,#294,.T.);
#99=ORIENTED_EDGE('',*,*,#295,.F.);
#100=ORIENTED_EDGE('',*,*,#296,.F.);
#101=ORIENTED_EDGE('',*,*,#297,.T.);
#102=ORIENTED_EDGE('',*,*,#298,.T.);
#103=ORIENTED_EDGE('',*,*,#299,.F.);
#104=ORIENTED_EDGE('',*,*,#300,.F.);
#105=ORIENTED_EDGE('',*,*,#301,.T.);
#106=ORIENTED_EDGE('',*,*,#302,.T.);
#107=ORIENTED_EDGE('',*,*,#303,.F.);
#108=ORIENTED_EDGE('',*,*,#304,.F.);
#109=ORIENTED_EDGE('',*,*,#305,.T.);
#110=ORIENTED_EDGE('',*,*,#306,.T.);
#111=ORIENTED_EDGE('',*,*,#307,.F.);
#112=ORIENTED_EDGE('',*,*,#308,.F.);
#113=ORIENTED_EDGE('',*,*,#309,.T.);
#114=ORIENTED_EDGE('',*,*,#310,.T.);
#115=ORIENTED_EDGE('',*,*,#311,.F.);
#116=ORIENTED_EDGE('',*,*,#312,.F.);
#117=ORIENTED_EDGE('',*,*,#313,.T.);
#118=ORIENTED_EDGE('',*,*,#314,.T.);
#119=ORIENTED_EDGE('',*,*,#315,.F.);
#120=ORIENTED_EDGE('',*,*,#316,.F.);
#121=ORIENTED_EDGE('',*,*,#317,.T.);
#122=ORIENTED_EDGE('',*,*,#318,.T.);
#123=ORIENTED_EDGE('',*,*,#319,.F.);
#124=ORIENTED_EDGE('',*,*,#320,.F.);
#125=ORIENTED_EDGE('',*,*,#321,.T.);
#126=ORIENTED_EDGE('',*,*,#322,.T.);
#127=ORIENTED_EDGE('',*,*,#323,.T.);
#128=ORIENTED_EDGE('',*,*,#324,.T.);
#129=ORIENTED_EDGE('',*,*,#323,.F.);
#130=ORIENTED_EDGE('',*,*,#325,.T.);
#131=ORIENTED_EDGE('',*,*,#326,.F.);
#132=ORIENTED_EDGE('',*,*,#327,.T.);
#133=ORIENTED_EDGE('',*,*,#328,.T.);
#134=ORIENTED_EDGE('',*,*,#329,.T.);
#135=ORIENTED_EDGE('',*,*,#330,.F.);
#136=ORIENTED_EDGE('',*,*,#331,.T.);
#137=ORIENTED_EDGE('',*,*,#332,.T.);
#138=ORIENTED_EDGE('',*,*,#333,.T.);
#139=ORIENTED_EDGE('',*,*,#334,.F.);
#140=ORIENTED_EDGE('',*,*,#335,.T.);
#141=ORIENTED_EDGE('',*,*,#336,.T.);
#142=ORIENTED_EDGE('',*,*,#337,.T.);
#143=ORIENTED_EDGE('',*,*,#338,.F.);
#144=ORIENTED_EDGE('',*,*,#339,.T.);
#145=ORIENTED_EDGE('',*,*,#340,.T.);
#146=ORIENTED_EDGE('',*,*,#341,.T.);
#147=ORIENTED_EDGE('',*,*,#342,.F.);
#148=ORIENTED_EDGE('',*,*,#343,.T.);
#149=ORIENTED_EDGE('',*,*,#344,.T.);
#150=ORIENTED_EDGE('',*,*,#345,.T.);
#151=ORIENTED_EDGE('',*,*,#346,.F.);
#152=ORIENTED_EDGE('',*,*,#347,.T.);
#153=ORIENTED_EDGE('',*,*,#348,.T.);
#154=ORIENTED_EDGE('',*,*,#349,.T.);
#155=ORIENTED_EDGE('',*,*,#350,.F.);
#156=ORIENTED_EDGE('',*,*,#351,.T.);
#157=ORIENTED_EDGE('',*,*,#352,.T.);
#158=ORIENTED_EDGE('',*,*,#353,.T.);
#159=ORIENTED_EDGE('',*,*,#354,.F.);
#160=ORIENTED_EDGE('',*,*,#355,.T.);
#161=ORIENTED_EDGE('',*,*,#356,.T.);
#162=ORIENTED_EDGE('',*,*,#324,.F.);
#163=ORIENTED_EDGE('',*,*,#357,.F.);
#164=ORIENTED_EDGE('',*,*,#326,.T.);
#165=ORIENTED_EDGE('',*,*,#358,.T.);
#166=ORIENTED_EDGE('',*,*,#291,.T.);
#167=ORIENTED_EDGE('',*,*,#358,.F.);
#168=ORIENTED_EDGE('',*,*,#325,.F.);
#169=ORIENTED_EDGE('',*,*,#359,.T.);
#170=ORIENTED_EDGE('',*,*,#292,.T.);
#171=ORIENTED_EDGE('',*,*,#356,.F.);
#172=ORIENTED_EDGE('',*,*,#360,.T.);
#173=ORIENTED_EDGE('',*,*,#293,.F.);
#174=ORIENTED_EDGE('',*,*,#359,.F.);
#175=ORIENTED_EDGE('',*,*,#355,.F.);
#176=ORIENTED_EDGE('',*,*,#361,.T.);
#177=ORIENTED_EDGE('',*,*,#294,.F.);
#178=ORIENTED_EDGE('',*,*,#360,.F.);
#179=ORIENTED_EDGE('',*,*,#361,.F.);
#180=ORIENTED_EDGE('',*,*,#354,.T.);
#181=ORIENTED_EDGE('',*,*,#362,.T.);
#182=ORIENTED_EDGE('',*,*,#295,.T.);
#183=ORIENTED_EDGE('',*,*,#362,.F.);
#184=ORIENTED_EDGE('',*,*,#353,.F.);
#185=ORIENTED_EDGE('',*,*,#363,.T.);
#186=ORIENTED_EDGE('',*,*,#296,.T.);
#187=ORIENTED_EDGE('',*,*,#352,.F.);
#188=ORIENTED_EDGE('',*,*,#364,.T.);
#189=ORIENTED_EDGE('',*,*,#297,.F.);
#190=ORIENTED_EDGE('',*,*,#363,.F.);
#191=ORIENTED_EDGE('',*,*,#351,.F.);
#192=ORIENTED_EDGE('',*,*,#365,.T.);
#193=ORIENTED_EDGE('',*,*,#298,.F.);
#194=ORIENTED_EDGE('',*,*,#364,.F.);
#195=ORIENTED_EDGE('',*,*,#365,.F.);
#196=ORIENTED_EDGE('',*,*,#350,.T.);
#197=ORIENTED_EDGE('',*,*,#366,.T.);
#198=ORIENTED_EDGE('',*,*,#299,.T.);
#199=ORIENTED_EDGE('',*,*,#366,.F.);
#200=ORIENTED_EDGE('',*,*,#349,.F.);
#201=ORIENTED_EDGE('',*,*,#367,.T.);
#202=ORIENTED_EDGE('',*,*,#300,.T.);
#203=ORIENTED_EDGE('',*,*,#348,.F.);
#204=ORIENTED_EDGE('',*,*,#368,.T.);
#205=ORIENTED_EDGE('',*,*,#301,.F.);
#206=ORIENTED_EDGE('',*,*,#367,.F.);
#207=ORIENTED_EDGE('',*,*,#347,.F.);
#208=ORIENTED_EDGE('',*,*,#369,.T.);
#209=ORIENTED_EDGE('',*,*,#302,.F.);
#210=ORIENTED_EDGE('',*,*,#368,.F.);
#211=ORIENTED_EDGE('',*,*,#369,.F.);
#212=ORIENTED_EDGE('',*,*,#346,.T.);
#213=ORIENTED_EDGE('',*,*,#370,.T.);
#214=ORIENTED_EDGE('',*,*,#303,.T.);
#215=ORIENTED_EDGE('',*,*,#370,.F.);
#216=ORIENTED_EDGE('',*,*,#345,.F.);
#217=ORIENTED_EDGE('',*,*,#371,.T.);
#218=ORIENTED_EDGE('',*,*,#304,.T.);
#219=ORIENTED_EDGE('',*,*,#344,.F.);
#220=ORIENTED_EDGE('',*,*,#372,.T.);
#221=ORIENTED_EDGE('',*,*,#305,.F.);
#222=ORIENTED_EDGE('',*,*,#371,.F.);
#223=ORIENTED_EDGE('',*,*,#343,.F.);
#224=ORIENTED_EDGE('',*,*,#373,.T.);
#225=ORIENTED_EDGE('',*,*,#306,.F.);
#226=ORIENTED_EDGE('',*,*,#372,.F.);
#227=ORIENTED_EDGE('',*,*,#373,.F.);
#228=ORIENTED_EDGE('',*,*,#342,.T.);
#229=ORIENTED_EDGE('',*,*,#374,.T.);
#230=ORIENTED_EDGE('',*,*,#307,.T.);
#231=ORIENTED_EDGE('',*,*,#374,.F.);
#232=ORIENTED_EDGE('',*,*,#341,.F.);
#233=ORIENTED_EDGE('',*,*,#375,.T.);
#234=ORIENTED_EDGE('',*,*,#308,.T.);
#235=ORIENTED_EDGE('',*,*,#340,.F.);
#236=ORIENTED_EDGE('',*,*,#376,.T.);
#237=ORIENTED_EDGE('',*,*,#309,.F.);
#238=ORIENTED_EDGE('',*,*,#375,.F.);
#239=ORIENTED_EDGE('',*,*,#339,.F.);
#240=ORIENTED_EDGE('',*,*,#377,.T.);
#241=ORIENTED_EDGE('',*,*,#310,.F.);
#242=ORIENTED_EDGE('',*,*,#376,.F.);
#243=ORIENTED_EDGE('',*,*,#377,.F.);
#244=ORIENTED_EDGE('',*,*,#338,.T.);
#245=ORIENTED_EDGE('',*,*,#378,.T.);
#246=ORIENTED_EDGE('',*,*,#311,.T.);
#247=ORIENTED_EDGE('',*,*,#378,.F.);
#248=ORIENTED_EDGE('',*,*,#337,.F.);
#249=ORIENTED_EDGE('',*,*,#379,.T.);
#250=ORIENTED_EDGE('',*,*,#312,.T.);
#251=ORIENTED_EDGE('',*,*,#336,.F.);
#252=ORIENTED_EDGE('',*,*,#380,.T.);
#253=ORIENTED_EDGE('',*,*,#313,.F.);
#254=ORIENTED_EDGE('',*,*,#379,.F.);
#255=ORIENTED_EDGE('',*,*,#335,.F.);
#256=ORIENTED_EDGE('',*,*,#381,.T.);
#257=ORIENTED_EDGE('',*,*,#314,.F.);
#258=ORIENTED_EDGE('',*,*,#380,.F.);
#259=ORIENTED_EDGE('',*,*,#381,.F.);
#260=ORIENTED_EDGE('',*,*,#334,.T.);
#261=ORIENTED_EDGE('',*,*,#382,.T.);
#262=ORIENTED_EDGE('',*,*,#315,.T.);
#263=ORIENTED_EDGE('',*,*,#382,.F.);
#264=ORIENTED_EDGE('',*,*,#333,.F.);
#265=ORIENTED_EDGE('',*,*,#383,.T.);
#266=ORIENTED_EDGE('',*,*,#316,.T.);
#267=ORIENTED_EDGE('',*,*,#332,.F.);
#268=ORIENTED_EDGE('',*,*,#384,.T.);
#269=ORIENTED_EDGE('',*,*,#317,.F.);
#270=ORIENTED_EDGE('',*,*,#383,.F.);
#271=ORIENTED_EDGE('',*,*,#331,.F.);
#272=ORIENTED_EDGE('',*,*,#385,.T.);
#273=ORIENTED_EDGE('',*,*,#318,.F.);
#274=ORIENTED_EDGE('',*,*,#384,.F.);
#275=ORIENTED_EDGE('',*,*,#385,.F.);
#276=ORIENTED_EDGE('',*,*,#330,.T.);
#277=ORIENTED_EDGE('',*,*,#386,.T.);
#278=ORIENTED_EDGE('',*,*,#319,.T.);
#279=ORIENTED_EDGE('',*,*,#386,.F.);
#280=ORIENTED_EDGE('',*,*,#329,.F.);
#281=ORIENTED_EDGE('',*,*,#387,.T.);
#282=ORIENTED_EDGE('',*,*,#320,.T.);
#283=ORIENTED_EDGE('',*,*,#328,.F.);
#284=ORIENTED_EDGE('',*,*,#388,.T.);
#285=ORIENTED_EDGE('',*,*,#321,.F.);
#286=ORIENTED_EDGE('',*,*,#387,.F.);
#287=ORIENTED_EDGE('',*,*,#327,.F.);
#288=ORIENTED_EDGE('',*,*,#357,.T.);
#289=ORIENTED_EDGE('',*,*,#322,.F.);
#290=ORIENTED_EDGE('',*,*,#388,.F.);
#291=EDGE_CURVE('',#389,#390,#455,.T.);
#292=EDGE_CURVE('',#391,#389,#77,.T.);
#293=EDGE_CURVE('',#391,#392,#456,.T.);
#294=EDGE_CURVE('',#392,#393,#457,.T.);
#295=EDGE_CURVE('',#394,#393,#458,.T.);
#296=EDGE_CURVE('',#395,#394,#78,.T.);
#297=EDGE_CURVE('',#395,#396,#459,.T.);
#298=EDGE_CURVE('',#396,#397,#460,.T.);
#299=EDGE_CURVE('',#398,#397,#461,.T.);
#300=EDGE_CURVE('',#399,#398,#79,.T.);
#301=EDGE_CURVE('',#399,#400,#462,.T.);
#302=EDGE_CURVE('',#400,#401,#463,.T.);
#303=EDGE_CURVE('',#402,#401,#464,.T.);
#304=EDGE_CURVE('',#403,#402,#80,.T.);
#305=EDGE_CURVE('',#403,#404,#465,.T.);
#306=EDGE_CURVE('',#404,#405,#466,.T.);
#307=EDGE_CURVE('',#406,#405,#467,.T.);
#308=EDGE_CURVE('',#407,#406,#81,.T.);
#309=EDGE_CURVE('',#407,#408,#468,.T.);
#310=EDGE_CURVE('',#408,#409,#469,.T.);
#311=EDGE_CURVE('',#410,#409,#470,.T.);
#312=EDGE_CURVE('',#411,#410,#82,.T.);
#313=EDGE_CURVE('',#411,#412,#471,.T.);
#314=EDGE_CURVE('',#412,#413,#472,.T.);
#315=EDGE_CURVE('',#414,#413,#473,.T.);
#316=EDGE_CURVE('',#415,#414,#83,.T.);
#317=EDGE_CURVE('',#415,#416,#474,.T.);
#318=EDGE_CURVE('',#416,#417,#475,.T.);
#319=EDGE_CURVE('',#418,#417,#476,.T.);
#320=EDGE_CURVE('',#419,#418,#84,.T.);
#321=EDGE_CURVE('',#419,#420,#477,.T.);
#322=EDGE_CURVE('',#420,#390,#478,.T.);
#323=EDGE_CURVE('',#421,#421,#85,.T.);
#324=EDGE_CURVE('',#422,#422,#86,.T.);
#325=EDGE_CURVE('',#423,#424,#87,.T.);
#326=EDGE_CURVE('',#425,#424,#479,.F.);
#327=EDGE_CURVE('',#425,#426,#480,.F.);
#328=EDGE_CURVE('',#426,#427,#481,.F.);
#329=EDGE_CURVE('',#427,#428,#88,.T.);
#330=EDGE_CURVE('',#429,#428,#482,.F.);
#331=EDGE_CURVE('',#429,#430,#483,.F.);
#332=EDGE_CURVE('',#430,#431,#484,.F.);
#333=EDGE_CURVE('',#431,#432,#89,.T.);
#334=EDGE_CURVE('',#433,#432,#485,.F.);
#335=EDGE_CURVE('',#433,#434,#486,.F.);
#336=EDGE_CURVE('',#434,#435,#487,.F.);
#337=EDGE_CURVE('',#435,#436,#90,.T.);
#338=EDGE_CURVE('',#437,#436,#488,.F.);
#339=EDGE_CURVE('',#437,#438,#489,.F.);
#340=EDGE_CURVE('',#438,#439,#490,.F.);
#341=EDGE_CURVE('',#439,#440,#91,.T.);
#342=EDGE_CURVE('',#441,#440,#491,.F.);
#343=EDGE_CURVE('',#441,#442,#492,.F.);
#344=EDGE_CURVE('',#442,#443,#493,.F.);
#345=EDGE_CURVE('',#443,#444,#92,.T.);
#346=EDGE_CURVE('',#445,#444,#494,.F.);
#347=EDGE_CURVE('',#445,#446,#495,.F.);
#348=EDGE_CURVE('',#446,#447,#496,.F.);
#349=EDGE_CURVE('',#447,#448,#93,.T.);
#350=EDGE_CURVE('',#449,#448,#497,.F.);
#351=EDGE_CURVE('',#449,#450,#498,.F.);
#352=EDGE_CURVE('',#450,#451,#499,.F.);
#353=EDGE_CURVE('',#451,#452,#94,.T.);
#354=EDGE_CURVE('',#453,#452,#500,.F.);
#355=EDGE_CURVE('',#453,#454,#501,.F.);
#356=EDGE_CURVE('',#454,#423,#502,.F.);
#357=EDGE_CURVE('',#425,#390,#12,.T.);
#358=EDGE_CURVE('',#424,#389,#503,.F.);
#359=EDGE_CURVE('',#423,#391,#504,.T.);
#360=EDGE_CURVE('',#454,#392,#13,.T.);
#361=EDGE_CURVE('',#453,#393,#14,.T.);
#362=EDGE_CURVE('',#452,#394,#505,.F.);
#363=EDGE_CURVE('',#451,#395,#506,.T.);
#364=EDGE_CURVE('',#450,#396,#15,.T.);
#365=EDGE_CURVE('',#449,#397,#16,.T.);
#366=EDGE_CURVE('',#448,#398,#507,.F.);
#367=EDGE_CURVE('',#447,#399,#508,.T.);
#368=EDGE_CURVE('',#446,#400,#17,.T.);
#369=EDGE_CURVE('',#445,#401,#18,.T.);
#370=EDGE_CURVE('',#444,#402,#509,.F.);
#371=EDGE_CURVE('',#443,#403,#510,.T.);
#372=EDGE_CURVE('',#442,#404,#19,.T.);
#373=EDGE_CURVE('',#441,#405,#20,.T.);
#374=EDGE_CURVE('',#440,#406,#511,.F.);
#375=EDGE_CURVE('',#439,#407,#512,.T.);
#376=EDGE_CURVE('',#438,#408,#21,.T.);
#377=EDGE_CURVE('',#437,#409,#22,.T.);
#378=EDGE_CURVE('',#436,#410,#513,.F.);
#379=EDGE_CURVE('',#435,#411,#514,.T.);
#380=EDGE_CURVE('',#434,#412,#23,.T.);
#381=EDGE_CURVE('',#433,#413,#24,.T.);
#382=EDGE_CURVE('',#432,#414,#515,.F.);
#383=EDGE_CURVE('',#431,#415,#516,.T.);
#384=EDGE_CURVE('',#430,#416,#25,.T.);
#385=EDGE_CURVE('',#429,#417,#26,.T.);
#386=EDGE_CURVE('',#428,#418,#517,.F.);
#387=EDGE_CURVE('',#427,#419,#518,.T.);
#388=EDGE_CURVE('',#426,#420,#27,.T.);
#389=VERTEX_POINT('',#759);
#390=VERTEX_POINT('',#760);
#391=VERTEX_POINT('',#762);
#392=VERTEX_POINT('',#767);
#393=VERTEX_POINT('',#773);
#394=VERTEX_POINT('',#781);
#395=VERTEX_POINT('',#783);
#396=VERTEX_POINT('',#788);
#397=VERTEX_POINT('',#794);
#398=VERTEX_POINT('',#802);
#399=VERTEX_POINT('',#804);
#400=VERTEX_POINT('',#809);
#401=VERTEX_POINT('',#815);
#402=VERTEX_POINT('',#823);
#403=VERTEX_POINT('',#825);
#404=VERTEX_POINT('',#830);
#405=VERTEX_POINT('',#836);
#406=VERTEX_POINT('',#844);
#407=VERTEX_POINT('',#846);
#408=VERTEX_POINT('',#851);
#409=VERTEX_POINT('',#857);
#410=VERTEX_POINT('',#865);
#411=VERTEX_POINT('',#867);
#412=VERTEX_POINT('',#872);
#413=VERTEX_POINT('',#878);
#414=VERTEX_POINT('',#886);
#415=VERTEX_POINT('',#888);
#416=VERTEX_POINT('',#893);
#417=VERTEX_POINT('',#899);
#418=VERTEX_POINT('',#907);
#419=VERTEX_POINT('',#909);
#420=VERTEX_POINT('',#914);
#421=VERTEX_POINT('',#921);
#422=VERTEX_POINT('',#924);
#423=VERTEX_POINT('',#927);
#424=VERTEX_POINT('',#928);
#425=VERTEX_POINT('',#936);
#426=VERTEX_POINT('',#942);
#427=VERTEX_POINT('',#947);
#428=VERTEX_POINT('',#949);
#429=VERTEX_POINT('',#957);
#430=VERTEX_POINT('',#963);
#431=VERTEX_POINT('',#968);
#432=VERTEX_POINT('',#970);
#433=VERTEX_POINT('',#978);
#434=VERTEX_POINT('',#984);
#435=VERTEX_POINT('',#989);
#436=VERTEX_POINT('',#991);
#437=VERTEX_POINT('',#999);
#438=VERTEX_POINT('',#1005);
#439=VERTEX_POINT('',#1010);
#440=VERTEX_POINT('',#1012);
#441=VERTEX_POINT('',#1020);
#442=VERTEX_POINT('',#1026);
#443=VERTEX_POINT('',#1031);
#444=VERTEX_POINT('',#1033);
#445=VERTEX_POINT('',#1041);
#446=VERTEX_POINT('',#1047);
#447=VERTEX_POINT('',#1052);
#448=VERTEX_POINT('',#1054);
#449=VERTEX_POINT('',#1062);
#450=VERTEX_POINT('',#1068);
#451=VERTEX_POINT('',#1073);
#452=VERTEX_POINT('',#1075);
#453=VERTEX_POINT('',#1083);
#454=VERTEX_POINT('',#1089);
#455=B_SPLINE_CURVE_WITH_KNOTS('',3,(#752,#753,#754,#755,#756,#757,#758),
 .UNSPECIFIED.,.F.,.F.,(4,1,1,1,4),(0.0657791200511028,0.299334340038327,
0.532889560025551,0.766444780012776,1.),.UNSPECIFIED.);
#456=B_SPLINE_CURVE_WITH_KNOTS('',3,(#763,#764,#765,#766),.UNSPECIFIED.,
 .F.,.F.,(4,4),(0.0657791200512047,0.217619534798653),.UNSPECIFIED.);
#457=B_SPLINE_CURVE_WITH_KNOTS('',3,(#768,#769,#770,#771,#772),
 .UNSPECIFIED.,.F.,.F.,(4,1,4),(0.217619534798653,0.608809767399326,1.),
 .UNSPECIFIED.);
#458=B_SPLINE_CURVE_WITH_KNOTS('',3,(#774,#775,#776,#777,#778,#779,#780),
 .UNSPECIFIED.,.F.,.F.,(4,1,1,1,4),(0.0657791200511007,0.299334340038325,
0.53288956002555,0.766444780012775,1.),.UNSPECIFIED.);
#459=B_SPLINE_CURVE_WITH_KNOTS('',3,(#784,#785,#786,#787),.UNSPECIFIED.,
 .F.,.F.,(4,4),(0.0657791200512043,0.217619534798653),.UNSPECIFIED.);
#460=B_SPLINE_CURVE_WITH_KNOTS('',3,(#789,#790,#791,#792,#793),
 .UNSPECIFIED.,.F.,.F.,(4,1,4),(0.217619534798653,0.608809767399326,1.),
 .UNSPECIFIED.);
#461=B_SPLINE_CURVE_WITH_KNOTS('',3,(#795,#796,#797,#798,#799,#800,#801),
 .UNSPECIFIED.,.F.,.F.,(4,1,1,1,4),(0.0657791200511003,0.299334340038325,
0.53288956002555,0.766444780012775,1.),.UNSPECIFIED.);
#462=B_SPLINE_CURVE_WITH_KNOTS('',3,(#805,#806,#807,#808),.UNSPECIFIED.,
 .F.,.F.,(4,4),(0.0657791200512077,0.217619534798653),.UNSPECIFIED.);
#463=B_SPLINE_CURVE_WITH_KNOTS('',3,(#810,#811,#812,#813,#814),
 .UNSPECIFIED.,.F.,.F.,(4,1,4),(0.217619534798653,0.608809767399326,1.),
 .UNSPECIFIED.);
#464=B_SPLINE_CURVE_WITH_KNOTS('',3,(#816,#817,#818,#819,#820,#821,#822),
 .UNSPECIFIED.,.F.,.F.,(4,1,1,1,4),(0.0657791206701483,0.299334340502611,
0.532889560335074,0.766444780167537,1.),.UNSPECIFIED.);
#465=B_SPLINE_CURVE_WITH_KNOTS('',3,(#826,#827,#828,#829),.UNSPECIFIED.,
 .F.,.F.,(4,4),(0.065779120051236,0.217619534798653),.UNSPECIFIED.);
#466=B_SPLINE_CURVE_WITH_KNOTS('',3,(#831,#832,#833,#834,#835),
 .UNSPECIFIED.,.F.,.F.,(4,1,4),(0.217619534798653,0.608809767399326,1.),
 .UNSPECIFIED.);
#467=B_SPLINE_CURVE_WITH_KNOTS('',3,(#837,#838,#839,#840,#841,#842,#843),
 .UNSPECIFIED.,.F.,.F.,(4,1,1,1,4),(0.0657791200511012,0.299334340038326,
0.532889560025551,0.766444780012775,1.),.UNSPECIFIED.);
#468=B_SPLINE_CURVE_WITH_KNOTS('',3,(#847,#848,#849,#850),.UNSPECIFIED.,
 .F.,.F.,(4,4),(0.0657791200511938,0.217619534798653),.UNSPECIFIED.);
#469=B_SPLINE_CURVE_WITH_KNOTS('',3,(#852,#853,#854,#855,#856),
 .UNSPECIFIED.,.F.,.F.,(4,1,4),(0.217619534798653,0.608809767399326,1.),
 .UNSPECIFIED.);
#470=B_SPLINE_CURVE_WITH_KNOTS('',3,(#858,#859,#860,#861,#862,#863,#864),
 .UNSPECIFIED.,.F.,.F.,(4,1,1,1,4),(0.0657791200511017,0.299334340038326,
0.532889560025551,0.766444780012775,1.),.UNSPECIFIED.);
#471=B_SPLINE_CURVE_WITH_KNOTS('',3,(#868,#869,#870,#871),.UNSPECIFIED.,
 .F.,.F.,(4,4),(0.0657791200511915,0.217619534798653),.UNSPECIFIED.);
#472=B_SPLINE_CURVE_WITH_KNOTS('',3,(#873,#874,#875,#876,#877),
 .UNSPECIFIED.,.F.,.F.,(4,1,4),(0.217619534798653,0.608809767399326,1.),
 .UNSPECIFIED.);
#473=B_SPLINE_CURVE_WITH_KNOTS('',3,(#879,#880,#881,#882,#883,#884,#885),
 .UNSPECIFIED.,.F.,.F.,(4,1,1,1,4),(0.0657791200511042,0.299334340038328,
0.532889560025552,0.766444780012776,1.),.UNSPECIFIED.);
#474=B_SPLINE_CURVE_WITH_KNOTS('',3,(#889,#890,#891,#892),.UNSPECIFIED.,
 .F.,.F.,(4,4),(0.0657791200512009,0.217619534798653),.UNSPECIFIED.);
#475=B_SPLINE_CURVE_WITH_KNOTS('',3,(#894,#895,#896,#897,#898),
 .UNSPECIFIED.,.F.,.F.,(4,1,4),(0.217619534798653,0.608809767399326,1.),
 .UNSPECIFIED.);
#476=B_SPLINE_CURVE_WITH_KNOTS('',3,(#900,#901,#902,#903,#904,#905,#906),
 .UNSPECIFIED.,.F.,.F.,(4,1,1,1,4),(0.065779120051101,0.299334340038326,
0.532889560025551,0.766444780012775,1.),.UNSPECIFIED.);
#477=B_SPLINE_CURVE_WITH_KNOTS('',3,(#910,#911,#912,#913),.UNSPECIFIED.,
 .F.,.F.,(4,4),(0.0657791200512044,0.217619534798653),.UNSPECIFIED.);
#478=B_SPLINE_CURVE_WITH_KNOTS('',3,(#915,#916,#917,#918,#919),
 .UNSPECIFIED.,.F.,.F.,(4,1,4),(0.217619534798653,0.608809767399326,1.),
 .UNSPECIFIED.);
#479=B_SPLINE_CURVE_WITH_KNOTS('',3,(#929,#930,#931,#932,#933,#934,#935),
 .UNSPECIFIED.,.F.,.F.,(4,1,1,1,4),(0.0657791200511028,0.299334340038327,
0.532889560025551,0.766444780012776,1.),.UNSPECIFIED.);
#480=B_SPLINE_CURVE_WITH_KNOTS('',3,(#937,#938,#939,#940,#941),
 .UNSPECIFIED.,.F.,.F.,(4,1,4),(0.217619534798653,0.608809767399326,1.),
 .UNSPECIFIED.);
#481=B_SPLINE_CURVE_WITH_KNOTS('',3,(#943,#944,#945,#946),.UNSPECIFIED.,
 .F.,.F.,(4,4),(0.0657791200512044,0.217619534798653),.UNSPECIFIED.);
#482=B_SPLINE_CURVE_WITH_KNOTS('',3,(#950,#951,#952,#953,#954,#955,#956),
 .UNSPECIFIED.,.F.,.F.,(4,1,1,1,4),(0.065779120051101,0.299334340038326,
0.532889560025551,0.766444780012775,1.),.UNSPECIFIED.);
#483=B_SPLINE_CURVE_WITH_KNOTS('',3,(#958,#959,#960,#961,#962),
 .UNSPECIFIED.,.F.,.F.,(4,1,4),(0.217619534798653,0.608809767399326,1.),
 .UNSPECIFIED.);
#484=B_SPLINE_CURVE_WITH_KNOTS('',3,(#964,#965,#966,#967),.UNSPECIFIED.,
 .F.,.F.,(4,4),(0.0657791200512009,0.217619534798653),.UNSPECIFIED.);
#485=B_SPLINE_CURVE_WITH_KNOTS('',3,(#971,#972,#973,#974,#975,#976,#977),
 .UNSPECIFIED.,.F.,.F.,(4,1,1,1,4),(0.0657791200511042,0.299334340038328,
0.532889560025552,0.766444780012776,1.),.UNSPECIFIED.);
#486=B_SPLINE_CURVE_WITH_KNOTS('',3,(#979,#980,#981,#982,#983),
 .UNSPECIFIED.,.F.,.F.,(4,1,4),(0.217619534798653,0.608809767399326,1.),
 .UNSPECIFIED.);
#487=B_SPLINE_CURVE_WITH_KNOTS('',3,(#985,#986,#987,#988),.UNSPECIFIED.,
 .F.,.F.,(4,4),(0.0657791200511915,0.217619534798653),.UNSPECIFIED.);
#488=B_SPLINE_CURVE_WITH_KNOTS('',3,(#992,#993,#994,#995,#996,#997,#998),
 .UNSPECIFIED.,.F.,.F.,(4,1,1,1,4),(0.0657791200511017,0.299334340038326,
0.532889560025551,0.766444780012775,1.),.UNSPECIFIED.);
#489=B_SPLINE_CURVE_WITH_KNOTS('',3,(#1000,#1001,#1002,#1003,#1004),
 .UNSPECIFIED.,.F.,.F.,(4,1,4),(0.217619534798653,0.608809767399326,1.),
 .UNSPECIFIED.);
#490=B_SPLINE_CURVE_WITH_KNOTS('',3,(#1006,#1007,#1008,#1009),
 .UNSPECIFIED.,.F.,.F.,(4,4),(0.0657791200511938,0.217619534798653),
 .UNSPECIFIED.);
#491=B_SPLINE_CURVE_WITH_KNOTS('',3,(#1013,#1014,#1015,#1016,#1017,#1018,
#1019),.UNSPECIFIED.,.F.,.F.,(4,1,1,1,4),(0.0657791200511012,0.299334340038326,
0.532889560025551,0.766444780012775,1.),.UNSPECIFIED.);
#492=B_SPLINE_CURVE_WITH_KNOTS('',3,(#1021,#1022,#1023,#1024,#1025),
 .UNSPECIFIED.,.F.,.F.,(4,1,4),(0.217619534798653,0.608809767399326,1.),
 .UNSPECIFIED.);
#493=B_SPLINE_CURVE_WITH_KNOTS('',3,(#1027,#1028,#1029,#1030),
 .UNSPECIFIED.,.F.,.F.,(4,4),(0.065779120051236,0.217619534798653),
 .UNSPECIFIED.);
#494=B_SPLINE_CURVE_WITH_KNOTS('',3,(#1034,#1035,#1036,#1037,#1038,#1039,
#1040),.UNSPECIFIED.,.F.,.F.,(4,1,1,1,4),(0.0657791200510993,0.299334340038324,
0.53288956002555,0.766444780012775,1.),.UNSPECIFIED.);
#495=B_SPLINE_CURVE_WITH_KNOTS('',3,(#1042,#1043,#1044,#1045,#1046),
 .UNSPECIFIED.,.F.,.F.,(4,1,4),(0.217619534798653,0.608809767399326,1.),
 .UNSPECIFIED.);
#496=B_SPLINE_CURVE_WITH_KNOTS('',3,(#1048,#1049,#1050,#1051),
 .UNSPECIFIED.,.F.,.F.,(4,4),(0.0657791200512077,0.217619534798653),
 .UNSPECIFIED.);
#497=B_SPLINE_CURVE_WITH_KNOTS('',3,(#1055,#1056,#1057,#1058,#1059,#1060,
#1061),.UNSPECIFIED.,.F.,.F.,(4,1,1,1,4),(0.0657791200511003,0.299334340038325,
0.53288956002555,0.766444780012775,1.),.UNSPECIFIED.);
#498=B_SPLINE_CURVE_WITH_KNOTS('',3,(#1063,#1064,#1065,#1066,#1067),
 .UNSPECIFIED.,.F.,.F.,(4,1,4),(0.217619534798653,0.608809767399326,1.),
 .UNSPECIFIED.);
#499=B_SPLINE_CURVE_WITH_KNOTS('',3,(#1069,#1070,#1071,#1072),
 .UNSPECIFIED.,.F.,.F.,(4,4),(0.0657791200512043,0.217619534798653),
 .UNSPECIFIED.);
#500=B_SPLINE_CURVE_WITH_KNOTS('',3,(#1076,#1077,#1078,#1079,#1080,#1081,
#1082),.UNSPECIFIED.,.F.,.F.,(4,1,1,1,4),(0.0657791200511007,0.299334340038325,
0.53288956002555,0.766444780012775,1.),.UNSPECIFIED.);
#501=B_SPLINE_CURVE_WITH_KNOTS('',3,(#1084,#1085,#1086,#1087,#1088),
 .UNSPECIFIED.,.F.,.F.,(4,1,4),(0.217619534798653,0.608809767399326,1.),
 .UNSPECIFIED.);
#502=B_SPLINE_CURVE_WITH_KNOTS('',3,(#1090,#1091,#1092,#1093),
 .UNSPECIFIED.,.F.,.F.,(4,4),(0.0657791200512047,0.217619534798653),
 .UNSPECIFIED.);
#503=B_SPLINE_CURVE_WITH_KNOTS('',3,(#1111,#1112,#1113,#1114),
 .UNSPECIFIED.,.F.,.F.,(4,4),(0.,1.),.UNSPECIFIED.);
#504=B_SPLINE_CURVE_WITH_KNOTS('',3,(#1116,#1117,#1118,#1119),
 .UNSPECIFIED.,.F.,.F.,(4,4),(0.,1.),.UNSPECIFIED.);
#505=B_SPLINE_CURVE_WITH_KNOTS('',3,(#1156,#1157,#1158,#1159),
 .UNSPECIFIED.,.F.,.F.,(4,4),(0.,1.),.UNSPECIFIED.);
#506=B_SPLINE_CURVE_WITH_KNOTS('',3,(#1161,#1162,#1163,#1164),
 .UNSPECIFIED.,.F.,.F.,(4,4),(0.,1.),.UNSPECIFIED.);
#507=B_SPLINE_CURVE_WITH_KNOTS('',3,(#1201,#1202,#1203,#1204),
 .UNSPECIFIED.,.F.,.F.,(4,4),(0.,1.),.UNSPECIFIED.);
#508=B_SPLINE_CURVE_WITH_KNOTS('',3,(#1206,#1207,#1208,#1209),
 .UNSPECIFIED.,.F.,.F.,(4,4),(0.,1.),.UNSPECIFIED.);
#509=B_SPLINE_CURVE_WITH_KNOTS('',3,(#1246,#1247,#1248,#1249),
 .UNSPECIFIED.,.F.,.F.,(4,4),(0.,1.),.UNSPECIFIED.);
#510=B_SPLINE_CURVE_WITH_KNOTS('',3,(#1251,#1252,#1253,#1254),
 .UNSPECIFIED.,.F.,.F.,(4,4),(0.,1.),.UNSPECIFIED.);
#511=B_SPLINE_CURVE_WITH_KNOTS('',3,(#1291,#1292,#1293,#1294),
 .UNSPECIFIED.,.F.,.F.,(4,4),(0.,1.),.UNSPECIFIED.);
#512=B_SPLINE_CURVE_WITH_KNOTS('',3,(#1296,#1297,#1298,#1299),
 .UNSPECIFIED.,.F.,.F.,(4,4),(0.,1.),.UNSPECIFIED.);
#513=B_SPLINE_CURVE_WITH_KNOTS('',3,(#1336,#1337,#1338,#1339),
 .UNSPECIFIED.,.F.,.F.,(4,4),(0.,1.),.UNSPECIFIED.);
#514=B_SPLINE_CURVE_WITH_KNOTS('',3,(#1341,#1342,#1343,#1344),
 .UNSPECIFIED.,.F.,.F.,(4,4),(0.,1.),.UNSPECIFIED.);
#515=B_SPLINE_CURVE_WITH_KNOTS('',3,(#1381,#1382,#1383,#1384),
 .UNSPECIFIED.,.F.,.F.,(4,4),(0.,1.),.UNSPECIFIED.);
#516=B_SPLINE_CURVE_WITH_KNOTS('',3,(#1386,#1387,#1388,#1389),
 .UNSPECIFIED.,.F.,.F.,(4,4),(0.,1.),.UNSPECIFIED.);
#517=B_SPLINE_CURVE_WITH_KNOTS('',3,(#1426,#1427,#1428,#1429),
 .UNSPECIFIED.,.F.,.F.,(4,4),(0.,1.),.UNSPECIFIED.);
#518=B_SPLINE_CURVE_WITH_KNOTS('',3,(#1431,#1432,#1433,#1434),
 .UNSPECIFIED.,.F.,.F.,(4,4),(0.,1.),.UNSPECIFIED.);
#519=EDGE_LOOP('',(#95,#96,#97,#98,#99,#100,#101,#102,#103,#104,#105,#106,
#107,#108,#109,#110,#111,#112,#113,#114,#115,#116,#117,#118,#119,#120,#121,
#122,#123,#124,#125,#126));
#520=EDGE_LOOP('',(#127));
#521=EDGE_LOOP('',(#128));
#522=EDGE_LOOP('',(#129));
#523=EDGE_LOOP('',(#130,#131,#132,#133,#134,#135,#136,#137,#138,#139,#140,
#141,#142,#143,#144,#145,#146,#147,#148,#149,#150,#151,#152,#153,#154,#155,
#156,#157,#158,#159,#160,#161));
#524=EDGE_LOOP('',(#162));
#525=EDGE_LOOP('',(#163,#164,#165,#166));
#526=EDGE_LOOP('',(#167,#168,#169,#170));
#527=EDGE_LOOP('',(#171,#172,#173,#174));
#528=EDGE_LOOP('',(#175,#176,#177,#178));
#529=EDGE_LOOP('',(#179,#180,#181,#182));
#530=EDGE_LOOP('',(#183,#184,#185,#186));
#531=EDGE_LOOP('',(#187,#188,#189,#190));
#532=EDGE_LOOP('',(#191,#192,#193,#194));
#533=EDGE_LOOP('',(#195,#196,#197,#198));
#534=EDGE_LOOP('',(#199,#200,#201,#202));
#535=EDGE_LOOP('',(#203,#204,#205,#206));
#536=EDGE_LOOP('',(#207,#208,#209,#210));
#537=EDGE_LOOP('',(#211,#212,#213,#214));
#538=EDGE_LOOP('',(#215,#216,#217,#218));
#539=EDGE_LOOP('',(#219,#220,#221,#222));
#540=EDGE_LOOP('',(#223,#224,#225,#226));
#541=EDGE_LOOP('',(#227,#228,#229,#230));
#542=EDGE_LOOP('',(#231,#232,#233,#234));
#543=EDGE_LOOP('',(#235,#236,#237,#238));
#544=EDGE_LOOP('',(#239,#240,#241,#242));
#545=EDGE_LOOP('',(#243,#244,#245,#246));
#546=EDGE_LOOP('',(#247,#248,#249,#250));
#547=EDGE_LOOP('',(#251,#252,#253,#254));
#548=EDGE_LOOP('',(#255,#256,#257,#258));
#549=EDGE_LOOP('',(#259,#260,#261,#262));
#550=EDGE_LOOP('',(#263,#264,#265,#266));
#551=EDGE_LOOP('',(#267,#268,#269,#270));
#552=EDGE_LOOP('',(#271,#272,#273,#274));
#553=EDGE_LOOP('',(#275,#276,#277,#278));
#554=EDGE_LOOP('',(#279,#280,#281,#282));
#555=EDGE_LOOP('',(#283,#284,#285,#286));
#556=EDGE_LOOP('',(#287,#288,#289,#290));
#557=FACE_BOUND('',#519,.T.);
#558=FACE_BOUND('',#520,.T.);
#559=FACE_BOUND('',#521,.T.);
#560=FACE_BOUND('',#522,.T.);
#561=FACE_BOUND('',#523,.T.);
#562=FACE_BOUND('',#524,.T.);
#563=FACE_BOUND('',#525,.T.);
#564=FACE_BOUND('',#526,.T.);
#565=FACE_BOUND('',#527,.T.);
#566=FACE_BOUND('',#528,.T.);
#567=FACE_BOUND('',#529,.T.);
#568=FACE_BOUND('',#530,.T.);
#569=FACE_BOUND('',#531,.T.);
#570=FACE_BOUND('',#532,.T.);
#571=FACE_BOUND('',#533,.T.);
#572=FACE_BOUND('',#534,.T.);
#573=FACE_BOUND('',#535,.T.);
#574=FACE_BOUND('',#536,.T.);
#575=FACE_BOUND('',#537,.T.);
#576=FACE_BOUND('',#538,.T.);
#577=FACE_BOUND('',#539,.T.);
#578=FACE_BOUND('',#540,.T.);
#579=FACE_BOUND('',#541,.T.);
#580=FACE_BOUND('',#542,.T.);
#581=FACE_BOUND('',#543,.T.);
#582=FACE_BOUND('',#544,.T.);
#583=FACE_BOUND('',#545,.T.);
#584=FACE_BOUND('',#546,.T.);
#585=FACE_BOUND('',#547,.T.);
#586=FACE_BOUND('',#548,.T.);
#587=FACE_BOUND('',#549,.T.);
#588=FACE_BOUND('',#550,.T.);
#589=FACE_BOUND('',#551,.T.);
#590=FACE_BOUND('',#552,.T.);
#591=FACE_BOUND('',#553,.T.);
#592=FACE_BOUND('',#554,.T.);
#593=FACE_BOUND('',#555,.T.);
#594=FACE_BOUND('',#556,.T.);
#595=PLANE('',#645);
#596=PLANE('',#657);
#597=ADVANCED_FACE('',(#557,#558),#595,.T.);
#598=ADVANCED_FACE('',(#559,#560),#68,.T.);
#599=ADVANCED_FACE('',(#561,#562),#596,.F.);
#600=ADVANCED_FACE('',(#563),#44,.F.);
#601=ADVANCED_FACE('',(#564),#69,.F.);
#602=ADVANCED_FACE('',(#565),#45,.T.);
#603=ADVANCED_FACE('',(#566),#46,.T.);
#604=ADVANCED_FACE('',(#567),#47,.F.);
#605=ADVANCED_FACE('',(#568),#70,.F.);
#606=ADVANCED_FACE('',(#569),#48,.T.);
#607=ADVANCED_FACE('',(#570),#49,.T.);
#608=ADVANCED_FACE('',(#571),#50,.F.);
#609=ADVANCED_FACE('',(#572),#71,.F.);
#610=ADVANCED_FACE('',(#573),#51,.T.);
#611=ADVANCED_FACE('',(#574),#52,.T.);
#612=ADVANCED_FACE('',(#575),#53,.F.);
#613=ADVANCED_FACE('',(#576),#72,.F.);
#614=ADVANCED_FACE('',(#577),#54,.T.);
#615=ADVANCED_FACE('',(#578),#55,.T.);
#616=ADVANCED_FACE('',(#579),#56,.F.);
#617=ADVANCED_FACE('',(#580),#73,.F.);
#618=ADVANCED_FACE('',(#581),#57,.T.);
#619=ADVANCED_FACE('',(#582),#58,.T.);
#620=ADVANCED_FACE('',(#583),#59,.F.);
#621=ADVANCED_FACE('',(#584),#74,.F.);
#622=ADVANCED_FACE('',(#585),#60,.T.);
#623=ADVANCED_FACE('',(#586),#61,.T.);
#624=ADVANCED_FACE('',(#587),#62,.F.);
#625=ADVANCED_FACE('',(#588),#75,.F.);
#626=ADVANCED_FACE('',(#589),#63,.T.);
#627=ADVANCED_FACE('',(#590),#64,.T.);
#628=ADVANCED_FACE('',(#591),#65,.F.);
#629=ADVANCED_FACE('',(#592),#76,.F.);
#630=ADVANCED_FACE('',(#593),#66,.T.);
#631=ADVANCED_FACE('',(#594),#67,.T.);
#632=CLOSED_SHELL('',(#597,#598,#599,#600,#601,#602,#603,#604,#605,#606,
#607,#608,#609,#610,#611,#612,#613,#614,#615,#616,#617,#618,#619,#620,#621,
#622,#623,#624,#625,#626,#627,#628,#629,#630,#631));
#633=STYLED_ITEM('',(#634),#641);
#634=PRESENTATION_STYLE_ASSIGNMENT((#635));
#635=SURFACE_STYLE_USAGE(.BOTH.,#636);
#636=SURFACE_SIDE_STYLE('',(#637));
#637=SURFACE_STYLE_FILL_AREA(#638);
#638=FILL_AREA_STYLE('',(#639));
#639=FILL_AREA_STYLE_COLOUR('',#640);
#640=COLOUR_RGB('',0.972549019607843,0.529411764705882,0.00392156862745098);
#641=MANIFOLD_SOLID_BREP('Outer Focus Knob',#632);
#642=SHAPE_DEFINITION_REPRESENTATION(#1460,#643);
#643=SHAPE_REPRESENTATION('Outer Focus Knob',(#644),#1455);
#644=AXIS2_PLACEMENT_3D('',#750,#674,#675);
#645=AXIS2_PLACEMENT_3D('',#751,#676,#677);
#646=AXIS2_PLACEMENT_3D('',#761,#678,#679);
#647=AXIS2_PLACEMENT_3D('',#782,#680,#681);
#648=AXIS2_PLACEMENT_3D('',#803,#682,#683);
#649=AXIS2_PLACEMENT_3D('',#824,#684,#685);
#650=AXIS2_PLACEMENT_3D('',#845,#686,#687);
#651=AXIS2_PLACEMENT_3D('',#866,#688,#689);
#652=AXIS2_PLACEMENT_3D('',#887,#690,#691);
#653=AXIS2_PLACEMENT_3D('',#908,#692,#693);
#654=AXIS2_PLACEMENT_3D('',#920,#694,#695);
#655=AXIS2_PLACEMENT_3D('',#922,#696,#697);
#656=AXIS2_PLACEMENT_3D('',#923,#698,#699);
#657=AXIS2_PLACEMENT_3D('',#925,#700,#701);
#658=AXIS2_PLACEMENT_3D('',#926,#702,#703);
#659=AXIS2_PLACEMENT_3D('',#948,#704,#705);
#660=AXIS2_PLACEMENT_3D('',#969,#706,#707);
#661=AXIS2_PLACEMENT_3D('',#990,#708,#709);
#662=AXIS2_PLACEMENT_3D('',#1011,#710,#711);
#663=AXIS2_PLACEMENT_3D('',#1032,#712,#713);
#664=AXIS2_PLACEMENT_3D('',#1053,#714,#715);
#665=AXIS2_PLACEMENT_3D('',#1074,#716,#717);
#666=AXIS2_PLACEMENT_3D('',#1115,#719,#720);
#667=AXIS2_PLACEMENT_3D('',#1160,#723,#724);
#668=AXIS2_PLACEMENT_3D('',#1205,#727,#728);
#669=AXIS2_PLACEMENT_3D('',#1250,#731,#732);
#670=AXIS2_PLACEMENT_3D('',#1295,#735,#736);
#671=AXIS2_PLACEMENT_3D('',#1340,#739,#740);
#672=AXIS2_PLACEMENT_3D('',#1385,#743,#744);
#673=AXIS2_PLACEMENT_3D('',#1430,#747,#748);
#674=DIRECTION('',(0.,0.,1.));
#675=DIRECTION('',(1.,0.,0.));
#676=DIRECTION('',(1.,0.,0.));
#677=DIRECTION('',(0.,1.,0.));
#678=DIRECTION('',(1.,0.,0.));
#679=DIRECTION('',(0.,0.,-1.));
#680=DIRECTION('',(1.,0.,0.));
#681=DIRECTION('',(0.,0.,-1.));
#682=DIRECTION('',(1.,0.,0.));
#683=DIRECTION('',(0.,0.,-1.));
#684=DIRECTION('',(1.,0.,0.));
#685=DIRECTION('',(0.,0.,-1.));
#686=DIRECTION('',(1.,0.,0.));
#687=DIRECTION('',(0.,0.,-1.));
#688=DIRECTION('',(1.,0.,0.));
#689=DIRECTION('',(0.,0.,-1.));
#690=DIRECTION('',(1.,0.,0.));
#691=DIRECTION('',(0.,0.,-1.));
#692=DIRECTION('',(1.,0.,0.));
#693=DIRECTION('',(0.,0.,-1.));
#694=DIRECTION('',(1.,0.,0.));
#695=DIRECTION('',(0.,0.,-1.));
#696=DIRECTION('',(1.,0.,0.));
#697=DIRECTION('',(0.,0.,-1.));
#698=DIRECTION('',(1.,0.,0.));
#699=DIRECTION('',(0.,0.,-1.));
#700=DIRECTION('',(1.,0.,0.));
#701=DIRECTION('',(0.,1.,0.));
#702=DIRECTION('',(1.,0.,0.));
#703=DIRECTION('',(0.,0.,-1.));
#704=DIRECTION('',(1.,0.,0.));
#705=DIRECTION('',(0.,0.,-1.));
#706=DIRECTION('',(1.,0.,0.));
#707=DIRECTION('',(0.,0.,-1.));
#708=DIRECTION('',(1.,0.,0.));
#709=DIRECTION('',(0.,0.,-1.));
#710=DIRECTION('',(1.,0.,0.));
#711=DIRECTION('',(0.,0.,-1.));
#712=DIRECTION('',(1.,0.,0.));
#713=DIRECTION('',(0.,0.,-1.));
#714=DIRECTION('',(1.,0.,0.));
#715=DIRECTION('',(0.,0.,-1.));
#716=DIRECTION('',(1.,0.,0.));
#717=DIRECTION('',(0.,0.,-1.));
#718=DIRECTION('',(1.,0.,0.));
#719=DIRECTION('',(1.,0.,0.));
#720=DIRECTION('',(0.,0.,-1.));
#721=DIRECTION('',(1.,0.,0.));
#722=DIRECTION('',(1.,0.,0.));
#723=DIRECTION('',(1.,0.,0.));
#724=DIRECTION('',(0.,0.,-1.));
#725=DIRECTION('',(1.,0.,0.));
#726=DIRECTION('',(1.,0.,0.));
#727=DIRECTION('',(1.,0.,0.));
#728=DIRECTION('',(0.,0.,-1.));
#729=DIRECTION('',(1.,0.,0.));
#730=DIRECTION('',(1.,0.,0.));
#731=DIRECTION('',(1.,0.,0.));
#732=DIRECTION('',(0.,0.,-1.));
#733=DIRECTION('',(1.,0.,0.));
#734=DIRECTION('',(1.,0.,0.));
#735=DIRECTION('',(1.,0.,0.));
#736=DIRECTION('',(0.,0.,-1.));
#737=DIRECTION('',(1.,0.,0.));
#738=DIRECTION('',(1.,0.,0.));
#739=DIRECTION('',(1.,0.,0.));
#740=DIRECTION('',(0.,0.,-1.));
#741=DIRECTION('',(1.,0.,0.));
#742=DIRECTION('',(1.,0.,0.));
#743=DIRECTION('',(1.,0.,0.));
#744=DIRECTION('',(0.,0.,-1.));
#745=DIRECTION('',(1.,0.,0.));
#746=DIRECTION('',(1.,0.,0.));
#747=DIRECTION('',(1.,0.,0.));
#748=DIRECTION('',(0.,0.,-1.));
#749=DIRECTION('',(1.,0.,0.));
#750=CARTESIAN_POINT('',(0.,0.,0.));
#751=CARTESIAN_POINT('',(-0.012,3.46944695195361E-18,0.0136));
#752=CARTESIAN_POINT('',(-0.012,0.00849900486844106,0.0115602353441811));
#753=CARTESIAN_POINT('',(-0.012,0.00883204155657161,0.0120662543810983));
#754=CARTESIAN_POINT('',(-0.012,0.00922077680677106,0.0129150156782108));
#755=CARTESIAN_POINT('',(-0.012,0.00915783165049807,0.0137873820974272));
#756=CARTESIAN_POINT('',(-0.012,0.00890370475705419,0.0143896004478693));
#757=CARTESIAN_POINT('',(-0.012,0.00886835130882783,0.0147399722919651));
#758=CARTESIAN_POINT('',(-0.012,0.00892725197898242,0.0149764505618821));
#759=CARTESIAN_POINT('',(-0.012,0.00849900367577694,0.0115602361291336));
#760=CARTESIAN_POINT('',(-0.012,0.00892725197898242,0.0149764505618821));
#761=CARTESIAN_POINT('',(-0.012,2.81892564846231E-18,0.0172));
#762=CARTESIAN_POINT('',(-0.012,0.00788105447261459,0.0107247420145006));
#763=CARTESIAN_POINT('',(-0.012,0.00788129599195897,0.0107250326167663));
#764=CARTESIAN_POINT('',(-0.012,0.00763014236470649,0.0104216740191687));
#765=CARTESIAN_POINT('',(-0.012,0.00738914201829068,0.0101786223222342));
#766=CARTESIAN_POINT('',(-0.012,0.00717028573765985,0.0100006935915404));
#767=CARTESIAN_POINT('',(-0.012,0.00717028573765984,0.0100006935915404));
#768=CARTESIAN_POINT('',(-0.012,0.00717028573765985,0.0100006935915404));
#769=CARTESIAN_POINT('',(-0.012,0.00660644086494601,0.00954229138246974));
#770=CARTESIAN_POINT('',(-0.012,0.00563849482004699,0.00942358044097414));
#771=CARTESIAN_POINT('',(-0.012,0.00509006828163802,0.00952550836075049));
#772=CARTESIAN_POINT('',(-0.012,0.0047402335257028,0.00931519270230381));
#773=CARTESIAN_POINT('',(-0.012,0.0047402335257028,0.00931519270230381));
#774=CARTESIAN_POINT('',(-0.012,0.00202178814338641,0.00720238019176208));
#775=CARTESIAN_POINT('',(-0.012,0.00261509013636084,0.00732469718361485));
#776=CARTESIAN_POINT('',(-0.012,0.00349013233666034,0.00764998472090928));
#777=CARTESIAN_POINT('',(-0.012,0.00406247960052412,0.00831134987846021));
#778=CARTESIAN_POINT('',(-0.012,0.00430861743024069,0.0089168774074488));
#779=CARTESIAN_POINT('',(-0.012,0.0045313690741585,0.009189626377325));
#780=CARTESIAN_POINT('',(-0.012,0.0047402335257028,0.00931519270230381));
#781=CARTESIAN_POINT('',(-0.012,0.00202178785509073,0.0072023815901482));
#782=CARTESIAN_POINT('',(-0.012,2.81892564846231E-18,0.0172));
#783=CARTESIAN_POINT('',(-0.012,0.000994048229007404,0.00704855410803471));
#784=CARTESIAN_POINT('',(-0.012,0.00099442449580644,0.00704858881490119));
#785=CARTESIAN_POINT('',(-0.012,0.000602325141351852,0.00701167432635701));
#786=CARTESIAN_POINT('',(-0.012,0.000260048659063724,0.00701022380249615));
#787=CARTESIAN_POINT('',(-0.012,-2.05207131170831E-5,0.007039163950594));
#788=CARTESIAN_POINT('',(-0.012,-2.05207131170786E-5,0.007039163950594));
#789=CARTESIAN_POINT('',(-0.012,-2.05207131170779E-5,0.007039163950594));
#790=CARTESIAN_POINT('',(-0.012,-0.000743358556695066,0.00711372317308245));
#791=CARTESIAN_POINT('',(-0.012,-0.00151174108059843,0.00771422307352067));
#792=CARTESIAN_POINT('',(-0.012,-0.00182746328162399,0.00817409312107841));
#793=CARTESIAN_POINT('',(-0.012,-0.00222354943811788,0.00827274802101758));
#794=CARTESIAN_POINT('',(-0.012,-0.00222354943811788,0.00827274802101758));
#795=CARTESIAN_POINT('',(-0.012,-0.00563976465581894,0.00870099513155895));
#796=CARTESIAN_POINT('',(-0.012,-0.00513374561890211,0.0083679584434287));
#797=CARTESIAN_POINT('',(-0.012,-0.00428498432178904,0.0079792231932288));
#798=CARTESIAN_POINT('',(-0.012,-0.00341261790257284,0.00804216834950197));
#799=CARTESIAN_POINT('',(-0.012,-0.00281039955213068,0.0082962952429458));
#800=CARTESIAN_POINT('',(-0.012,-0.00246002770803486,0.00833164869117217));
#801=CARTESIAN_POINT('',(-0.012,-0.00222354943811788,0.00827274802101758));
#802=CARTESIAN_POINT('',(-0.012,-0.00563976387086642,0.00870099632422307));
#803=CARTESIAN_POINT('',(-0.012,2.81892564846231E-18,0.0172));
#804=CARTESIAN_POINT('',(-0.012,-0.00647525798549936,0.00931894552738541));
#805=CARTESIAN_POINT('',(-0.012,-0.00647496738323378,0.00931870400804107));
#806=CARTESIAN_POINT('',(-0.0119999999999996,-0.00677832598085879,0.00956985763531635));
#807=CARTESIAN_POINT('',(-0.012,-0.00702137767776582,0.00981085798170934));
#808=CARTESIAN_POINT('',(-0.012,-0.00719930640845959,0.0100297142623401));
#809=CARTESIAN_POINT('',(-0.012,-0.00719930640845959,0.0100297142623402));
#810=CARTESIAN_POINT('',(-0.012,-0.00719930640845958,0.0100297142623402));
#811=CARTESIAN_POINT('',(-0.012,-0.00765770861753026,0.010593559135054));
#812=CARTESIAN_POINT('',(-0.012,-0.00777641955902585,0.011561505179953));
#813=CARTESIAN_POINT('',(-0.012,-0.00767449163924952,0.012109931718362));
#814=CARTESIAN_POINT('',(-0.012,-0.0078848072976962,0.0124597664742972));
#815=CARTESIAN_POINT('',(-0.012,-0.00788480729769619,0.0124597664742972));
#816=CARTESIAN_POINT('',(-0.012,-0.00999761980726531,0.0151782118518959));
#817=CARTESIAN_POINT('',(-0.012,-0.00987530281549374,0.014584909859315));
#818=CARTESIAN_POINT('',(-0.012,-0.0095500152777854,0.013709867662146));
#819=CARTESIAN_POINT('',(-0.012,-0.00888865012066553,0.0131375203990008));
#820=CARTESIAN_POINT('',(-0.012,-0.00828312259226498,0.0128913825696183));
#821=CARTESIAN_POINT('',(-0.012,-0.0080103736225918,0.0126686309257031));
#822=CARTESIAN_POINT('',(-0.012,-0.00788480729769619,0.0124597664742972));
#823=CARTESIAN_POINT('',(-0.012,-0.009997618408897,0.0151782121401878));
#824=CARTESIAN_POINT('',(-0.012,2.81892564846231E-18,0.0172));
#825=CARTESIAN_POINT('',(-0.012,-0.0101514458919653,0.0162059517709926));
#826=CARTESIAN_POINT('',(-0.012,-0.0101514111850989,0.016205575504194));
#827=CARTESIAN_POINT('',(-0.012,-0.010188325673644,0.0165976748586632));
#828=CARTESIAN_POINT('',(-0.012,-0.0101897761975038,0.0169399513409363));
#829=CARTESIAN_POINT('',(-0.012,-0.010160836049406,0.0172205207131171));
#830=CARTESIAN_POINT('',(-0.012,-0.010160836049406,0.0172205207131171));
#831=CARTESIAN_POINT('',(-0.012,-0.010160836049406,0.0172205207131171));
#832=CARTESIAN_POINT('',(-0.012,-0.0100862768269175,0.0179433585566951));
#833=CARTESIAN_POINT('',(-0.012,-0.00948577692647933,0.0187117410805984));
#834=CARTESIAN_POINT('',(-0.012,-0.00902590687892159,0.019027463281624));
#835=CARTESIAN_POINT('',(-0.012,-0.00892725197898242,0.0194235494381179));
#836=CARTESIAN_POINT('',(-0.012,-0.00892725197898242,0.0194235494381179));
#837=CARTESIAN_POINT('',(-0.012,-0.00849900486844109,0.0228397646558189));
#838=CARTESIAN_POINT('',(-0.012,-0.00883204155657216,0.0223337456189004));
#839=CARTESIAN_POINT('',(-0.012,-0.0092207768067708,0.0214849843217899));
#840=CARTESIAN_POINT('',(-0.012,-0.00915783165049815,0.0206126179025726));
#841=CARTESIAN_POINT('',(-0.012,-0.00890370475705416,0.0200103995521307));
#842=CARTESIAN_POINT('',(-0.012,-0.00886835130882783,0.0196600277080349));
#843=CARTESIAN_POINT('',(-0.012,-0.00892725197898242,0.0194235494381179));
#844=CARTESIAN_POINT('',(-0.012,-0.00849900367577693,0.0228397638708664));
#845=CARTESIAN_POINT('',(-0.012,2.81892564846231E-18,0.0172));
#846=CARTESIAN_POINT('',(-0.012,-0.00788105447261459,0.0236752579854994));
#847=CARTESIAN_POINT('',(-0.012,-0.00788129599195897,0.0236749673832337));
#848=CARTESIAN_POINT('',(-0.012,-0.00763014236467406,0.0239783259808702));
#849=CARTESIAN_POINT('',(-0.012,-0.0073891420182907,0.0242213776777658));
#850=CARTESIAN_POINT('',(-0.012,-0.00717028573765985,0.0243993064084596));
#851=CARTESIAN_POINT('',(-0.012,-0.00717028573765984,0.0243993064084596));
#852=CARTESIAN_POINT('',(-0.012,-0.00717028573765985,0.0243993064084596));
#853=CARTESIAN_POINT('',(-0.012,-0.00660644086494601,0.0248577086175303));
#854=CARTESIAN_POINT('',(-0.012,-0.00563849482004699,0.0249764195590258));
#855=CARTESIAN_POINT('',(-0.012,-0.00509006828163802,0.0248744916392495));
#856=CARTESIAN_POINT('',(-0.012,-0.0047402335257028,0.0250848072976962));
#857=CARTESIAN_POINT('',(-0.012,-0.0047402335257028,0.0250848072976962));
#858=CARTESIAN_POINT('',(-0.012,-0.00202178814338611,0.027197619808238));
#859=CARTESIAN_POINT('',(-0.012,-0.00261509013635505,0.0270753028163873));
#860=CARTESIAN_POINT('',(-0.012,-0.00349013233666304,0.0267500152790897));
#861=CARTESIAN_POINT('',(-0.012,-0.0040624796005234,0.0260886501215401));
#862=CARTESIAN_POINT('',(-0.012,-0.0043086174302409,0.0254831225925511));
#863=CARTESIAN_POINT('',(-0.012,-0.0045313690741585,0.025210373622675));
#864=CARTESIAN_POINT('',(-0.012,-0.0047402335257028,0.0250848072976962));
#865=CARTESIAN_POINT('',(-0.012,-0.00202178785509073,0.0271976184098518));
#866=CARTESIAN_POINT('',(-0.012,2.81892564846231E-18,0.0172));
#867=CARTESIAN_POINT('',(-0.012,-0.000994048229007401,0.0273514458919653));
#868=CARTESIAN_POINT('',(-0.012,-0.000994424495806571,0.0273514111850988));
#869=CARTESIAN_POINT('',(-0.012,-0.000602325141319621,0.0273883256736461));
#870=CARTESIAN_POINT('',(-0.012,-0.000260048659063742,0.0273897761975038));
#871=CARTESIAN_POINT('',(-0.012,2.05207131170849E-5,0.027360836049406));
#872=CARTESIAN_POINT('',(-0.012,2.05207131170796E-5,0.027360836049406));
#873=CARTESIAN_POINT('',(-0.012,2.05207131170766E-5,0.027360836049406));
#874=CARTESIAN_POINT('',(-0.012,0.000743358556695065,0.0272862768269175));
#875=CARTESIAN_POINT('',(-0.012,0.00151174108059843,0.0266857769264793));
#876=CARTESIAN_POINT('',(-0.012,0.00182746328162399,0.0262259068789216));
#877=CARTESIAN_POINT('',(-0.012,0.00222354943811789,0.0261272519789824));
#878=CARTESIAN_POINT('',(-0.012,0.00222354943811788,0.0261272519789824));
#879=CARTESIAN_POINT('',(-0.012,0.00563976465581894,0.025699004868441));
#880=CARTESIAN_POINT('',(-0.0119999999999999,0.00513374561890641,0.0260320415565686));
#881=CARTESIAN_POINT('',(-0.012,0.00428498432178702,0.0264207768067725));
#882=CARTESIAN_POINT('',(-0.012,0.00341261790257337,0.0263578316504977));
#883=CARTESIAN_POINT('',(-0.012,0.00281039955213053,0.0261037047570543));
#884=CARTESIAN_POINT('',(-0.012,0.00246002770803485,0.0260683513088278));
#885=CARTESIAN_POINT('',(-0.012,0.00222354943811788,0.0261272519789824));
#886=CARTESIAN_POINT('',(-0.012,0.00563976387086642,0.0256990036757769));
#887=CARTESIAN_POINT('',(-0.012,2.81892564846231E-18,0.0172));
#888=CARTESIAN_POINT('',(-0.012,0.00647525798549936,0.0250810544726146));
#889=CARTESIAN_POINT('',(-0.012,0.0064749673832333,0.0250812959919593));
#890=CARTESIAN_POINT('',(-0.0120000000000004,0.00677832598076679,0.0248301423647613));
#891=CARTESIAN_POINT('',(-0.012,0.00702137767776581,0.0245891420182907));
#892=CARTESIAN_POINT('',(-0.012,0.0071993064084596,0.0243702857376598));
#893=CARTESIAN_POINT('',(-0.012,0.00719930640845959,0.0243702857376599));
#894=CARTESIAN_POINT('',(-0.012,0.00719930640845958,0.0243702857376598));
#895=CARTESIAN_POINT('',(-0.012,0.00765770861753026,0.023806440864946));
#896=CARTESIAN_POINT('',(-0.012,0.00777641955902585,0.022838494820047));
#897=CARTESIAN_POINT('',(-0.012,0.00767449163924951,0.022290068281638));
#898=CARTESIAN_POINT('',(-0.012,0.0078848072976962,0.0219402335257028));
#899=CARTESIAN_POINT('',(-0.012,0.00788480729769619,0.0219402335257028));
#900=CARTESIAN_POINT('',(-0.012,0.00999761980823792,0.0192217881433864));
#901=CARTESIAN_POINT('',(-0.0119999999999999,0.00987530281638498,0.0198150901363614));
#902=CARTESIAN_POINT('',(-0.0120000000000001,0.00955001527909081,0.0206901323366601));
#903=CARTESIAN_POINT('',(-0.012,0.00888865012153977,0.0212624796005242));
#904=CARTESIAN_POINT('',(-0.012,0.0082831225925512,0.0215086174302407));
#905=CARTESIAN_POINT('',(-0.012,0.008010373622675,0.0217313690741585));
#906=CARTESIAN_POINT('',(-0.012,0.00788480729769619,0.0219402335257028));
#907=CARTESIAN_POINT('',(-0.012,0.0099976184098518,0.0192217878550908));
#908=CARTESIAN_POINT('',(-0.012,2.81892564846231E-18,0.0172));
#909=CARTESIAN_POINT('',(-0.012,0.0101514458919653,0.0181940482290074));
#910=CARTESIAN_POINT('',(-0.012,0.0101514111850988,0.0181944244958064));
#911=CARTESIAN_POINT('',(-0.012,0.0101883256736429,0.0178023251413522));
#912=CARTESIAN_POINT('',(-0.012,0.0101897761975039,0.0174600486590637));
#913=CARTESIAN_POINT('',(-0.012,0.010160836049406,0.0171794792868829));
#914=CARTESIAN_POINT('',(-0.012,0.010160836049406,0.0171794792868829));
#915=CARTESIAN_POINT('',(-0.012,0.010160836049406,0.0171794792868829));
#916=CARTESIAN_POINT('',(-0.012,0.0100862768269175,0.0164566414433049));
#917=CARTESIAN_POINT('',(-0.012,0.00948577692647932,0.0156882589194016));
#918=CARTESIAN_POINT('',(-0.012,0.0090259068789216,0.015372536718376));
#919=CARTESIAN_POINT('',(-0.012,0.00892725197898242,0.0149764505618821));
#920=CARTESIAN_POINT('',(-0.012,2.81892564846231E-18,0.0172));
#921=CARTESIAN_POINT('',(-0.012,2.81892564846231E-18,0.0062));
#922=CARTESIAN_POINT('',(-0.027,2.81892564846231E-18,0.0172));
#923=CARTESIAN_POINT('',(-0.017,2.81892564846231E-18,0.0172));
#924=CARTESIAN_POINT('',(-0.017,2.81892564846231E-18,0.0062));
#925=CARTESIAN_POINT('',(-0.017,3.46944695195361E-18,0.0136));
#926=CARTESIAN_POINT('',(-0.017,2.81892564846231E-18,0.0172));
#927=CARTESIAN_POINT('',(-0.017,0.00788129489216879,0.0107250335272934));
#928=CARTESIAN_POINT('',(-0.017,0.00849900367577694,0.0115602361291336));
#929=CARTESIAN_POINT('',(-0.017,0.00849900486844106,0.0115602353441811));
#930=CARTESIAN_POINT('',(-0.017,0.00883204155657161,0.0120662543810983));
#931=CARTESIAN_POINT('',(-0.017,0.00922077680677106,0.0129150156782108));
#932=CARTESIAN_POINT('',(-0.017,0.00915783165049807,0.0137873820974272));
#933=CARTESIAN_POINT('',(-0.017,0.00890370475705419,0.0143896004478693));
#934=CARTESIAN_POINT('',(-0.017,0.00886835130882783,0.0147399722919651));
#935=CARTESIAN_POINT('',(-0.017,0.00892725197898242,0.0149764505618821));
#936=CARTESIAN_POINT('',(-0.017,0.00892725197898242,0.0149764505618821));
#937=CARTESIAN_POINT('',(-0.017,0.010160836049406,0.0171794792868829));
#938=CARTESIAN_POINT('',(-0.017,0.0100862768269175,0.0164566414433049));
#939=CARTESIAN_POINT('',(-0.017,0.00948577692647932,0.0156882589194016));
#940=CARTESIAN_POINT('',(-0.017,0.0090259068789216,0.015372536718376));
#941=CARTESIAN_POINT('',(-0.017,0.00892725197898242,0.0149764505618821));
#942=CARTESIAN_POINT('',(-0.017,0.010160836049406,0.0171794792868829));
#943=CARTESIAN_POINT('',(-0.017,0.0101514111850988,0.0181944244958064));
#944=CARTESIAN_POINT('',(-0.017,0.0101883256736429,0.0178023251413522));
#945=CARTESIAN_POINT('',(-0.017,0.0101897761975039,0.0174600486590637));
#946=CARTESIAN_POINT('',(-0.017,0.010160836049406,0.0171794792868829));
#947=CARTESIAN_POINT('',(-0.017,0.0101514097635898,0.0181944243619771));
#948=CARTESIAN_POINT('',(-0.017,2.81892564846231E-18,0.0172));
#949=CARTESIAN_POINT('',(-0.017,0.0099976184098518,0.0192217878550908));
#950=CARTESIAN_POINT('',(-0.017,0.00999761980823792,0.0192217881433864));
#951=CARTESIAN_POINT('',(-0.0169999999999999,0.00987530281638498,0.0198150901363614));
#952=CARTESIAN_POINT('',(-0.0170000000000001,0.00955001527909081,0.0206901323366601));
#953=CARTESIAN_POINT('',(-0.017,0.00888865012153977,0.0212624796005242));
#954=CARTESIAN_POINT('',(-0.017,0.0082831225925512,0.0215086174302407));
#955=CARTESIAN_POINT('',(-0.017,0.008010373622675,0.0217313690741585));
#956=CARTESIAN_POINT('',(-0.017,0.00788480729769619,0.0219402335257028));
#957=CARTESIAN_POINT('',(-0.017,0.00788480729769619,0.0219402335257028));
#958=CARTESIAN_POINT('',(-0.017,0.00719930640845958,0.0243702857376598));
#959=CARTESIAN_POINT('',(-0.017,0.00765770861753026,0.023806440864946));
#960=CARTESIAN_POINT('',(-0.017,0.00777641955902585,0.022838494820047));
#961=CARTESIAN_POINT('',(-0.017,0.00767449163924951,0.022290068281638));
#962=CARTESIAN_POINT('',(-0.017,0.0078848072976962,0.0219402335257028));
#963=CARTESIAN_POINT('',(-0.017,0.00719930640845959,0.0243702857376599));
#964=CARTESIAN_POINT('',(-0.017,0.0064749673832333,0.0250812959919593));
#965=CARTESIAN_POINT('',(-0.0170000000000004,0.00677832598076679,0.0248301423647613));
#966=CARTESIAN_POINT('',(-0.017,0.00702137767776581,0.0245891420182907));
#967=CARTESIAN_POINT('',(-0.017,0.0071993064084596,0.0243702857376598));
#968=CARTESIAN_POINT('',(-0.017,0.00647496647270657,0.0250812948921688));
#969=CARTESIAN_POINT('',(-0.017,2.81892564846231E-18,0.0172));
#970=CARTESIAN_POINT('',(-0.017,0.00563976387086642,0.0256990036757769));
#971=CARTESIAN_POINT('',(-0.017,0.00563976465581894,0.025699004868441));
#972=CARTESIAN_POINT('',(-0.0169999999999999,0.00513374561890641,0.0260320415565686));
#973=CARTESIAN_POINT('',(-0.017,0.00428498432178702,0.0264207768067725));
#974=CARTESIAN_POINT('',(-0.017,0.00341261790257337,0.0263578316504977));
#975=CARTESIAN_POINT('',(-0.017,0.00281039955213053,0.0261037047570543));
#976=CARTESIAN_POINT('',(-0.017,0.00246002770803485,0.0260683513088278));
#977=CARTESIAN_POINT('',(-0.017,0.00222354943811788,0.0261272519789824));
#978=CARTESIAN_POINT('',(-0.017,0.00222354943811788,0.0261272519789824));
#979=CARTESIAN_POINT('',(-0.017,2.05207131170766E-5,0.027360836049406));
#980=CARTESIAN_POINT('',(-0.017,0.000743358556695065,0.0272862768269175));
#981=CARTESIAN_POINT('',(-0.017,0.00151174108059843,0.0266857769264793));
#982=CARTESIAN_POINT('',(-0.017,0.00182746328162399,0.0262259068789216));
#983=CARTESIAN_POINT('',(-0.017,0.00222354943811789,0.0261272519789824));
#984=CARTESIAN_POINT('',(-0.017,2.05207131170797E-5,0.027360836049406));
#985=CARTESIAN_POINT('',(-0.017,-0.000994424495806571,0.0273514111850988));
#986=CARTESIAN_POINT('',(-0.017,-0.000602325141319621,0.0273883256736461));
#987=CARTESIAN_POINT('',(-0.017,-0.000260048659063742,0.0273897761975038));
#988=CARTESIAN_POINT('',(-0.017,2.05207131170849E-5,0.027360836049406));
#989=CARTESIAN_POINT('',(-0.017,-0.000994424361977089,0.0273514097635898));
#990=CARTESIAN_POINT('',(-0.017,2.81892564846231E-18,0.0172));
#991=CARTESIAN_POINT('',(-0.017,-0.00202178785509073,0.0271976184098518));
#992=CARTESIAN_POINT('',(-0.017,-0.00202178814338611,0.027197619808238));
#993=CARTESIAN_POINT('',(-0.017,-0.00261509013635505,0.0270753028163873));
#994=CARTESIAN_POINT('',(-0.017,-0.00349013233666304,0.0267500152790897));
#995=CARTESIAN_POINT('',(-0.017,-0.0040624796005234,0.0260886501215401));
#996=CARTESIAN_POINT('',(-0.017,-0.0043086174302409,0.0254831225925511));
#997=CARTESIAN_POINT('',(-0.017,-0.0045313690741585,0.025210373622675));
#998=CARTESIAN_POINT('',(-0.017,-0.0047402335257028,0.0250848072976962));
#999=CARTESIAN_POINT('',(-0.017,-0.0047402335257028,0.0250848072976962));
#1000=CARTESIAN_POINT('',(-0.017,-0.00717028573765985,0.0243993064084596));
#1001=CARTESIAN_POINT('',(-0.017,-0.00660644086494601,0.0248577086175303));
#1002=CARTESIAN_POINT('',(-0.017,-0.00563849482004699,0.0249764195590258));
#1003=CARTESIAN_POINT('',(-0.017,-0.00509006828163802,0.0248744916392495));
#1004=CARTESIAN_POINT('',(-0.017,-0.0047402335257028,0.0250848072976962));
#1005=CARTESIAN_POINT('',(-0.017,-0.00717028573765985,0.0243993064084596));
#1006=CARTESIAN_POINT('',(-0.017,-0.00788129599195897,0.0236749673832337));
#1007=CARTESIAN_POINT('',(-0.017,-0.00763014236467406,0.0239783259808702));
#1008=CARTESIAN_POINT('',(-0.017,-0.0073891420182907,0.0242213776777658));
#1009=CARTESIAN_POINT('',(-0.017,-0.00717028573765985,0.0243993064084596));
#1010=CARTESIAN_POINT('',(-0.017,-0.00788129489216878,0.0236749664727065));
#1011=CARTESIAN_POINT('',(-0.017,2.81892564846231E-18,0.0172));
#1012=CARTESIAN_POINT('',(-0.017,-0.00849900367577693,0.0228397638708664));
#1013=CARTESIAN_POINT('',(-0.017,-0.00849900486844109,0.0228397646558189));
#1014=CARTESIAN_POINT('',(-0.017,-0.00883204155657216,0.0223337456189004));
#1015=CARTESIAN_POINT('',(-0.017,-0.0092207768067708,0.0214849843217899));
#1016=CARTESIAN_POINT('',(-0.017,-0.00915783165049815,0.0206126179025726));
#1017=CARTESIAN_POINT('',(-0.017,-0.00890370475705416,0.0200103995521307));
#1018=CARTESIAN_POINT('',(-0.017,-0.00886835130882783,0.0196600277080349));
#1019=CARTESIAN_POINT('',(-0.017,-0.00892725197898242,0.0194235494381179));
#1020=CARTESIAN_POINT('',(-0.017,-0.00892725197898242,0.0194235494381179));
#1021=CARTESIAN_POINT('',(-0.017,-0.010160836049406,0.0172205207131171));
#1022=CARTESIAN_POINT('',(-0.017,-0.0100862768269175,0.0179433585566951));
#1023=CARTESIAN_POINT('',(-0.017,-0.00948577692647933,0.0187117410805984));
#1024=CARTESIAN_POINT('',(-0.017,-0.00902590687892159,0.019027463281624));
#1025=CARTESIAN_POINT('',(-0.017,-0.00892725197898242,0.0194235494381179));
#1026=CARTESIAN_POINT('',(-0.017,-0.010160836049406,0.0172205207131171));
#1027=CARTESIAN_POINT('',(-0.017,-0.0101514111850989,0.016205575504194));
#1028=CARTESIAN_POINT('',(-0.017,-0.010188325673644,0.0165976748586632));
#1029=CARTESIAN_POINT('',(-0.017,-0.0101897761975038,0.0169399513409363));
#1030=CARTESIAN_POINT('',(-0.017,-0.010160836049406,0.0172205207131171));
#1031=CARTESIAN_POINT('',(-0.017,-0.0101514097635898,0.0162055756380229));
#1032=CARTESIAN_POINT('',(-0.017,2.81892564846231E-18,0.0172));
#1033=CARTESIAN_POINT('',(-0.017,-0.0099976184098518,0.0151782121449093));
#1034=CARTESIAN_POINT('',(-0.017,-0.00999761980823792,0.0151782118566136));
#1035=CARTESIAN_POINT('',(-0.017,-0.0098753028163851,0.0145849098636389));
#1036=CARTESIAN_POINT('',(-0.017,-0.00955001527909075,0.0137098676633398));
#1037=CARTESIAN_POINT('',(-0.017,-0.00888865012153978,0.0131375203994758));
#1038=CARTESIAN_POINT('',(-0.017,-0.0082831225925512,0.0128913825697593));
#1039=CARTESIAN_POINT('',(-0.017,-0.008010373622675,0.0126686309258415));
#1040=CARTESIAN_POINT('',(-0.017,-0.00788480729769619,0.0124597664742972));
#1041=CARTESIAN_POINT('',(-0.017,-0.00788480729769619,0.0124597664742972));
#1042=CARTESIAN_POINT('',(-0.017,-0.00719930640845958,0.0100297142623402));
#1043=CARTESIAN_POINT('',(-0.017,-0.00765770861753026,0.010593559135054));
#1044=CARTESIAN_POINT('',(-0.017,-0.00777641955902585,0.011561505179953));
#1045=CARTESIAN_POINT('',(-0.017,-0.00767449163924952,0.012109931718362));
#1046=CARTESIAN_POINT('',(-0.017,-0.0078848072976962,0.0124597664742972));
#1047=CARTESIAN_POINT('',(-0.017,-0.00719930640845959,0.0100297142623402));
#1048=CARTESIAN_POINT('',(-0.017,-0.00647496738323378,0.00931870400804107));
#1049=CARTESIAN_POINT('',(-0.0169999999999996,-0.00677832598085879,0.00956985763531635));
#1050=CARTESIAN_POINT('',(-0.017,-0.00702137767776582,0.00981085798170934));
#1051=CARTESIAN_POINT('',(-0.017,-0.00719930640845959,0.0100297142623401));
#1052=CARTESIAN_POINT('',(-0.017,-0.00647496647270657,0.00931870510783121));
#1053=CARTESIAN_POINT('',(-0.017,2.81892564846231E-18,0.0172));
#1054=CARTESIAN_POINT('',(-0.017,-0.00563976387086642,0.00870099632422307));
#1055=CARTESIAN_POINT('',(-0.017,-0.00563976465581894,0.00870099513155895));
#1056=CARTESIAN_POINT('',(-0.017,-0.00513374561890211,0.0083679584434287));
#1057=CARTESIAN_POINT('',(-0.017,-0.00428498432178904,0.0079792231932288));
#1058=CARTESIAN_POINT('',(-0.017,-0.00341261790257284,0.00804216834950197));
#1059=CARTESIAN_POINT('',(-0.017,-0.00281039955213068,0.0082962952429458));
#1060=CARTESIAN_POINT('',(-0.017,-0.00246002770803486,0.00833164869117217));
#1061=CARTESIAN_POINT('',(-0.017,-0.00222354943811788,0.00827274802101758));
#1062=CARTESIAN_POINT('',(-0.017,-0.00222354943811788,0.00827274802101758));
#1063=CARTESIAN_POINT('',(-0.017,-2.05207131170779E-5,0.007039163950594));
#1064=CARTESIAN_POINT('',(-0.017,-0.000743358556695066,0.00711372317308245));
#1065=CARTESIAN_POINT('',(-0.017,-0.00151174108059843,0.00771422307352067));
#1066=CARTESIAN_POINT('',(-0.017,-0.00182746328162399,0.00817409312107841));
#1067=CARTESIAN_POINT('',(-0.017,-0.00222354943811788,0.00827274802101758));
#1068=CARTESIAN_POINT('',(-0.017,-2.05207131170785E-5,0.007039163950594));
#1069=CARTESIAN_POINT('',(-0.017,0.00099442449580644,0.00704858881490119));
#1070=CARTESIAN_POINT('',(-0.017,0.000602325141351852,0.00701167432635701));
#1071=CARTESIAN_POINT('',(-0.017,0.000260048659063724,0.00701022380249615));
#1072=CARTESIAN_POINT('',(-0.017,-2.05207131170831E-5,0.007039163950594));
#1073=CARTESIAN_POINT('',(-0.017,0.000994424361977093,0.00704859023641019));
#1074=CARTESIAN_POINT('',(-0.017,2.81892564846231E-18,0.0172));
#1075=CARTESIAN_POINT('',(-0.017,0.00202178785509073,0.0072023815901482));
#1076=CARTESIAN_POINT('',(-0.017,0.00202178814338641,0.00720238019176208));
#1077=CARTESIAN_POINT('',(-0.017,0.00261509013636084,0.00732469718361485));
#1078=CARTESIAN_POINT('',(-0.017,0.00349013233666034,0.00764998472090928));
#1079=CARTESIAN_POINT('',(-0.017,0.00406247960052412,0.00831134987846021));
#1080=CARTESIAN_POINT('',(-0.017,0.00430861743024069,0.0089168774074488));
#1081=CARTESIAN_POINT('',(-0.017,0.0045313690741585,0.009189626377325));
#1082=CARTESIAN_POINT('',(-0.017,0.0047402335257028,0.00931519270230381));
#1083=CARTESIAN_POINT('',(-0.017,0.00474023352570281,0.00931519270230381));
#1084=CARTESIAN_POINT('',(-0.017,0.00717028573765985,0.0100006935915404));
#1085=CARTESIAN_POINT('',(-0.017,0.00660644086494601,0.00954229138246974));
#1086=CARTESIAN_POINT('',(-0.017,0.00563849482004699,0.00942358044097414));
#1087=CARTESIAN_POINT('',(-0.017,0.00509006828163802,0.00952550836075049));
#1088=CARTESIAN_POINT('',(-0.017,0.0047402335257028,0.00931519270230381));
#1089=CARTESIAN_POINT('',(-0.017,0.00717028573765985,0.0100006935915404));
#1090=CARTESIAN_POINT('',(-0.017,0.00788129599195897,0.0107250326167663));
#1091=CARTESIAN_POINT('',(-0.017,0.00763014236470649,0.0104216740191687));
#1092=CARTESIAN_POINT('',(-0.017,0.00738914201829068,0.0101786223222342));
#1093=CARTESIAN_POINT('',(-0.017,0.00717028573765985,0.0100006935915404));
#1094=CARTESIAN_POINT('',(-0.017,0.00847502622689565,0.011523801973523));
#1095=CARTESIAN_POINT('',(-0.012,0.00847502622689565,0.011523801973523));
#1096=CARTESIAN_POINT('',(-0.017,0.00864254368102532,0.0117783295490924));
#1097=CARTESIAN_POINT('',(-0.012,0.00864254368102532,0.0117783295490924));
#1098=CARTESIAN_POINT('',(-0.017,0.00892434944531926,0.0122635333042204));
#1099=CARTESIAN_POINT('',(-0.012,0.00892434944531926,0.0122635333042204));
#1100=CARTESIAN_POINT('',(-0.017,0.00920453978190641,0.0130373730886424));
#1101=CARTESIAN_POINT('',(-0.012,0.00920453978190641,0.0130373730886424));
#1102=CARTESIAN_POINT('',(-0.017,0.00916267170399111,0.0137815308272607));
#1103=CARTESIAN_POINT('',(-0.012,0.00916267170399111,0.0137815308272607));
#1104=CARTESIAN_POINT('',(-0.017,0.00890398769160488,0.0143860665030335));
#1105=CARTESIAN_POINT('',(-0.012,0.00890398769160488,0.0143860665030335));
#1106=CARTESIAN_POINT('',(-0.017,0.0088679979048069,0.0147385534223456));
#1107=CARTESIAN_POINT('',(-0.012,0.0088679979048069,0.0147385534223456));
#1108=CARTESIAN_POINT('',(-0.017,0.00892725197898242,0.0149764505618821));
#1109=CARTESIAN_POINT('',(-0.012,0.00892725197898242,0.0149764505618821));
#1110=CARTESIAN_POINT('',(-0.027002,0.00892725197898242,0.0149764505618821));
#1111=CARTESIAN_POINT('',(-0.012,0.00849900367577694,0.0115602361291336));
#1112=CARTESIAN_POINT('',(-0.0136666666666667,0.00849900367577694,0.0115602361291336));
#1113=CARTESIAN_POINT('',(-0.0153333333333333,0.00849900367577694,0.0115602361291336));
#1114=CARTESIAN_POINT('',(-0.017,0.00849900367577694,0.0115602361291336));
#1115=CARTESIAN_POINT('',(-0.027,2.81892564846231E-18,0.0172));
#1116=CARTESIAN_POINT('',(-0.017,0.00788129489216879,0.0107250335272934));
#1117=CARTESIAN_POINT('',(-0.0153333333333333,0.00788129489216879,0.0107250335272934));
#1118=CARTESIAN_POINT('',(-0.0136666666666667,0.00788129489216879,0.0107250335272934));
#1119=CARTESIAN_POINT('',(-0.012,0.00788129489216879,0.0107250335272934));
#1120=CARTESIAN_POINT('',(-0.017,0.00788581675724982,0.0107304930715234));
#1121=CARTESIAN_POINT('',(-0.012,0.00788581675724982,0.0107304930715234));
#1122=CARTESIAN_POINT('',(-0.017,0.00763315620819914,0.0104253143222994));
#1123=CARTESIAN_POINT('',(-0.012,0.00763315620819914,0.0104253143222994));
#1124=CARTESIAN_POINT('',(-0.017,0.00739045515597446,0.0101796898946183));
#1125=CARTESIAN_POINT('',(-0.012,0.00739045515597446,0.0101796898946183));
#1126=CARTESIAN_POINT('',(-0.017,0.00717028573765985,0.0100006935915404));
#1127=CARTESIAN_POINT('',(-0.012,0.00717028573765985,0.0100006935915404));
#1128=CARTESIAN_POINT('',(-0.027002,0.00717028573765985,0.0100006935915404));
#1129=CARTESIAN_POINT('',(-0.017,0.00717028573765985,0.0100006935915404));
#1130=CARTESIAN_POINT('',(-0.012,0.00717028573765985,0.0100006935915404));
#1131=CARTESIAN_POINT('',(-0.017,0.00660644086494601,0.00954229138246974));
#1132=CARTESIAN_POINT('',(-0.012,0.00660644086494601,0.00954229138246974));
#1133=CARTESIAN_POINT('',(-0.017,0.00563849482004699,0.00942358044097414));
#1134=CARTESIAN_POINT('',(-0.012,0.00563849482004699,0.00942358044097414));
#1135=CARTESIAN_POINT('',(-0.017,0.00509006828163802,0.00952550836075049));
#1136=CARTESIAN_POINT('',(-0.012,0.00509006828163802,0.00952550836075049));
#1137=CARTESIAN_POINT('',(-0.017,0.0047402335257028,0.00931519270230381));
#1138=CARTESIAN_POINT('',(-0.012,0.0047402335257028,0.00931519270230381));
#1139=CARTESIAN_POINT('',(-0.027002,0.0047402335257028,0.00931519270230381));
#1140=CARTESIAN_POINT('',(-0.017,0.0019790703998922,0.00719357336834867));
#1141=CARTESIAN_POINT('',(-0.012,0.0019790703998922,0.00719357336834867));
#1142=CARTESIAN_POINT('',(-0.017,0.00227750130235891,0.00725509881525068));
#1143=CARTESIAN_POINT('',(-0.012,0.00227750130235891,0.00725509881525068));
#1144=CARTESIAN_POINT('',(-0.017,0.0028198589347761,0.00739892291384897));
#1145=CARTESIAN_POINT('',(-0.012,0.0028198589347761,0.00739892291384897));
#1146=CARTESIAN_POINT('',(-0.017,0.00356517078091694,0.00774798578594212));
#1147=CARTESIAN_POINT('',(-0.012,0.00356517078091694,0.00774798578594212));
#1148=CARTESIAN_POINT('',(-0.017,0.00406176456235705,0.00830378997100067));
#1149=CARTESIAN_POINT('',(-0.012,0.00406176456235705,0.00830378997100067));
#1150=CARTESIAN_POINT('',(-0.017,0.00430631861882235,0.00891417846615162));
#1151=CARTESIAN_POINT('',(-0.012,0.00430631861882235,0.00891417846615162));
#1152=CARTESIAN_POINT('',(-0.017,0.00453011588744924,0.00918887297937512));
#1153=CARTESIAN_POINT('',(-0.012,0.00453011588744924,0.00918887297937512));
#1154=CARTESIAN_POINT('',(-0.017,0.0047402335257028,0.00931519270230381));
#1155=CARTESIAN_POINT('',(-0.012,0.0047402335257028,0.00931519270230381));
#1156=CARTESIAN_POINT('',(-0.012,0.00202178785509073,0.0072023815901482));
#1157=CARTESIAN_POINT('',(-0.0136666666666667,0.00202178785509073,0.0072023815901482));
#1158=CARTESIAN_POINT('',(-0.0153333333333333,0.00202178785509073,0.0072023815901482));
#1159=CARTESIAN_POINT('',(-0.017,0.00202178785509073,0.0072023815901482));
#1160=CARTESIAN_POINT('',(-0.027,2.81892564846231E-18,0.0172));
#1161=CARTESIAN_POINT('',(-0.017,0.000994424361977093,0.00704859023641019));
#1162=CARTESIAN_POINT('',(-0.0153333333333333,0.000994424361977093,0.00704859023641019));
#1163=CARTESIAN_POINT('',(-0.0136666666666667,0.000994424361977093,0.00704859023641019));
#1164=CARTESIAN_POINT('',(-0.012,0.000994424361977093,0.00704859023641019));
#1165=CARTESIAN_POINT('',(-0.017,0.00100148228418701,0.00704925327569501));
#1166=CARTESIAN_POINT('',(-0.012,0.00100148228418701,0.00704925327569501));
#1167=CARTESIAN_POINT('',(-0.017,0.000607030333559255,0.0070121173002156));
#1168=CARTESIAN_POINT('',(-0.012,0.000607030333559255,0.0070121173002156));
#1169=CARTESIAN_POINT('',(-0.017,0.000261732075296809,0.00701005016160756));
#1170=CARTESIAN_POINT('',(-0.012,0.000261732075296809,0.00701005016160756));
#1171=CARTESIAN_POINT('',(-0.017,-2.05207131170831E-5,0.007039163950594));
#1172=CARTESIAN_POINT('',(-0.012,-2.05207131170831E-5,0.007039163950594));
#1173=CARTESIAN_POINT('',(-0.027002,-2.05207131170785E-5,0.007039163950594));
#1174=CARTESIAN_POINT('',(-0.017,-2.05207131170779E-5,0.007039163950594));
#1175=CARTESIAN_POINT('',(-0.012,-2.05207131170779E-5,0.007039163950594));
#1176=CARTESIAN_POINT('',(-0.017,-0.000743358556695066,0.00711372317308245));
#1177=CARTESIAN_POINT('',(-0.012,-0.000743358556695066,0.00711372317308245));
#1178=CARTESIAN_POINT('',(-0.017,-0.00151174108059843,0.00771422307352067));
#1179=CARTESIAN_POINT('',(-0.012,-0.00151174108059843,0.00771422307352067));
#1180=CARTESIAN_POINT('',(-0.017,-0.00182746328162399,0.00817409312107841));
#1181=CARTESIAN_POINT('',(-0.012,-0.00182746328162399,0.00817409312107841));
#1182=CARTESIAN_POINT('',(-0.017,-0.00222354943811788,0.00827274802101758));
#1183=CARTESIAN_POINT('',(-0.012,-0.00222354943811788,0.00827274802101758));
#1184=CARTESIAN_POINT('',(-0.027002,-0.00222354943811788,0.00827274802101758));
#1185=CARTESIAN_POINT('',(-0.017,-0.00567619802647698,0.00872497377310434));
#1186=CARTESIAN_POINT('',(-0.012,-0.00567619802647698,0.00872497377310434));
#1187=CARTESIAN_POINT('',(-0.017,-0.0054216704509075,0.00855745631897463));
#1188=CARTESIAN_POINT('',(-0.012,-0.0054216704509075,0.00855745631897463));
#1189=CARTESIAN_POINT('',(-0.017,-0.0049364666957797,0.00827565055468078));
#1190=CARTESIAN_POINT('',(-0.012,-0.0049364666957797,0.00827565055468078));
#1191=CARTESIAN_POINT('',(-0.017,-0.00416262691135753,0.00799546021809358));
#1192=CARTESIAN_POINT('',(-0.012,-0.00416262691135753,0.00799546021809358));
#1193=CARTESIAN_POINT('',(-0.017,-0.0034184691727393,0.0080373282960089));
#1194=CARTESIAN_POINT('',(-0.012,-0.0034184691727393,0.0080373282960089));
#1195=CARTESIAN_POINT('',(-0.017,-0.00281393349696655,0.00829601230839511));
#1196=CARTESIAN_POINT('',(-0.012,-0.00281393349696655,0.00829601230839511));
#1197=CARTESIAN_POINT('',(-0.017,-0.00246144657765436,0.0083320020951931));
#1198=CARTESIAN_POINT('',(-0.012,-0.00246144657765436,0.0083320020951931));
#1199=CARTESIAN_POINT('',(-0.017,-0.00222354943811788,0.00827274802101758));
#1200=CARTESIAN_POINT('',(-0.012,-0.00222354943811788,0.00827274802101758));
#1201=CARTESIAN_POINT('',(-0.012,-0.00563976387086638,0.00870099632422304));
#1202=CARTESIAN_POINT('',(-0.0136666666666667,-0.00563976387086638,0.00870099632422304));
#1203=CARTESIAN_POINT('',(-0.0153333333333333,-0.00563976387086638,0.00870099632422304));
#1204=CARTESIAN_POINT('',(-0.017,-0.00563976387086638,0.00870099632422304));
#1205=CARTESIAN_POINT('',(-0.027,2.81892564846231E-18,0.0172));
#1206=CARTESIAN_POINT('',(-0.017,-0.00647496647270654,0.00931870510783119));
#1207=CARTESIAN_POINT('',(-0.0153333333333333,-0.00647496647270654,0.00931870510783119));
#1208=CARTESIAN_POINT('',(-0.0136666666666667,-0.00647496647270654,0.00931870510783119));
#1209=CARTESIAN_POINT('',(-0.012,-0.00647496647270654,0.00931870510783119));
#1210=CARTESIAN_POINT('',(-0.017,-0.00646950692847647,0.00931418324275006));
#1211=CARTESIAN_POINT('',(-0.012,-0.00646950692847647,0.00931418324275006));
#1212=CARTESIAN_POINT('',(-0.017,-0.00677468567769329,0.00956684379179426));
#1213=CARTESIAN_POINT('',(-0.012,-0.00677468567769329,0.00956684379179426));
#1214=CARTESIAN_POINT('',(-0.017,-0.00702031010538166,0.00980954484402555));
#1215=CARTESIAN_POINT('',(-0.012,-0.00702031010538166,0.00980954484402555));
#1216=CARTESIAN_POINT('',(-0.017,-0.00719930640845959,0.0100297142623401));
#1217=CARTESIAN_POINT('',(-0.012,-0.00719930640845959,0.0100297142623401));
#1218=CARTESIAN_POINT('',(-0.027002,-0.00719930640845959,0.0100297142623402));
#1219=CARTESIAN_POINT('',(-0.017,-0.00719930640845958,0.0100297142623402));
#1220=CARTESIAN_POINT('',(-0.012,-0.00719930640845958,0.0100297142623402));
#1221=CARTESIAN_POINT('',(-0.017,-0.00765770861753026,0.010593559135054));
#1222=CARTESIAN_POINT('',(-0.012,-0.00765770861753026,0.010593559135054));
#1223=CARTESIAN_POINT('',(-0.017,-0.00777641955902585,0.011561505179953));
#1224=CARTESIAN_POINT('',(-0.012,-0.00777641955902585,0.011561505179953));
#1225=CARTESIAN_POINT('',(-0.017,-0.00767449163924952,0.012109931718362));
#1226=CARTESIAN_POINT('',(-0.012,-0.00767449163924952,0.012109931718362));
#1227=CARTESIAN_POINT('',(-0.017,-0.0078848072976962,0.0124597664742972));
#1228=CARTESIAN_POINT('',(-0.012,-0.0078848072976962,0.0124597664742972));
#1229=CARTESIAN_POINT('',(-0.027002,-0.00788480729769619,0.0124597664742972));
#1230=CARTESIAN_POINT('',(-0.017,-0.0100064266316513,0.0152209296001078));
#1231=CARTESIAN_POINT('',(-0.012,-0.0100064266316513,0.0152209296001078));
#1232=CARTESIAN_POINT('',(-0.017,-0.00994490118474933,0.0149224986976413));
#1233=CARTESIAN_POINT('',(-0.012,-0.00994490118474933,0.0149224986976413));
#1234=CARTESIAN_POINT('',(-0.017,-0.00980107708615104,0.0143801410652238));
#1235=CARTESIAN_POINT('',(-0.012,-0.00980107708615104,0.0143801410652238));
#1236=CARTESIAN_POINT('',(-0.017,-0.00945201421405787,0.0136348292190831));
#1237=CARTESIAN_POINT('',(-0.012,-0.00945201421405787,0.0136348292190831));
#1238=CARTESIAN_POINT('',(-0.017,-0.00889621002899935,0.0131382354376429));
#1239=CARTESIAN_POINT('',(-0.012,-0.00889621002899935,0.0131382354376429));
#1240=CARTESIAN_POINT('',(-0.017,-0.00828582153384839,0.0128936813811777));
#1241=CARTESIAN_POINT('',(-0.012,-0.00828582153384839,0.0128936813811777));
#1242=CARTESIAN_POINT('',(-0.017,-0.00801112702062487,0.0126698841125508));
#1243=CARTESIAN_POINT('',(-0.012,-0.00801112702062487,0.0126698841125508));
#1244=CARTESIAN_POINT('',(-0.017,-0.00788480729769619,0.0124597664742972));
#1245=CARTESIAN_POINT('',(-0.012,-0.00788480729769619,0.0124597664742972));
#1246=CARTESIAN_POINT('',(-0.012,-0.00999761840985179,0.0151782121449092));
#1247=CARTESIAN_POINT('',(-0.0136666666666667,-0.00999761840985179,0.0151782121449092));
#1248=CARTESIAN_POINT('',(-0.0153333333333333,-0.00999761840985179,0.0151782121449092));
#1249=CARTESIAN_POINT('',(-0.017,-0.00999761840985179,0.0151782121449092));
#1250=CARTESIAN_POINT('',(-0.027,2.81892564846231E-18,0.0172));
#1251=CARTESIAN_POINT('',(-0.017,-0.0101514097635898,0.0162055756380229));
#1252=CARTESIAN_POINT('',(-0.0153333333333333,-0.0101514097635898,0.0162055756380229));
#1253=CARTESIAN_POINT('',(-0.0136666666666667,-0.0101514097635898,0.0162055756380229));
#1254=CARTESIAN_POINT('',(-0.012,-0.0101514097635898,0.0162055756380229));
#1255=CARTESIAN_POINT('',(-0.017,-0.010150746724305,0.0161985177158134));
#1256=CARTESIAN_POINT('',(-0.012,-0.010150746724305,0.0161985177158134));
#1257=CARTESIAN_POINT('',(-0.017,-0.0101878826997831,0.0165929696664304));
#1258=CARTESIAN_POINT('',(-0.012,-0.0101878826997831,0.0165929696664304));
#1259=CARTESIAN_POINT('',(-0.017,-0.0101899498383924,0.0169382679247032));
#1260=CARTESIAN_POINT('',(-0.012,-0.0101899498383924,0.0169382679247032));
#1261=CARTESIAN_POINT('',(-0.017,-0.010160836049406,0.0172205207131171));
#1262=CARTESIAN_POINT('',(-0.012,-0.010160836049406,0.0172205207131171));
#1263=CARTESIAN_POINT('',(-0.027002,-0.010160836049406,0.0172205207131171));
#1264=CARTESIAN_POINT('',(-0.017,-0.010160836049406,0.0172205207131171));
#1265=CARTESIAN_POINT('',(-0.012,-0.010160836049406,0.0172205207131171));
#1266=CARTESIAN_POINT('',(-0.017,-0.0100862768269175,0.0179433585566951));
#1267=CARTESIAN_POINT('',(-0.012,-0.0100862768269175,0.0179433585566951));
#1268=CARTESIAN_POINT('',(-0.017,-0.00948577692647933,0.0187117410805984));
#1269=CARTESIAN_POINT('',(-0.012,-0.00948577692647933,0.0187117410805984));
#1270=CARTESIAN_POINT('',(-0.017,-0.00902590687892159,0.019027463281624));
#1271=CARTESIAN_POINT('',(-0.012,-0.00902590687892159,0.019027463281624));
#1272=CARTESIAN_POINT('',(-0.017,-0.00892725197898242,0.0194235494381179));
#1273=CARTESIAN_POINT('',(-0.012,-0.00892725197898242,0.0194235494381179));
#1274=CARTESIAN_POINT('',(-0.027002,-0.00892725197898242,0.0194235494381179));
#1275=CARTESIAN_POINT('',(-0.017,-0.00847502622689566,0.022876198026477));
#1276=CARTESIAN_POINT('',(-0.012,-0.00847502622689566,0.022876198026477));
#1277=CARTESIAN_POINT('',(-0.017,-0.00864254368102546,0.0226216704509074));
#1278=CARTESIAN_POINT('',(-0.012,-0.00864254368102546,0.0226216704509074));
#1279=CARTESIAN_POINT('',(-0.017,-0.00892434944531918,0.0221364666957798));
#1280=CARTESIAN_POINT('',(-0.012,-0.00892434944531918,0.0221364666957798));
#1281=CARTESIAN_POINT('',(-0.017,-0.00920453978190644,0.0213626269113575));
#1282=CARTESIAN_POINT('',(-0.012,-0.00920453978190644,0.0213626269113575));
#1283=CARTESIAN_POINT('',(-0.017,-0.0091626717039911,0.0206184691727393));
#1284=CARTESIAN_POINT('',(-0.012,-0.0091626717039911,0.0206184691727393));
#1285=CARTESIAN_POINT('',(-0.017,-0.00890398769160487,0.0200139334969666));
#1286=CARTESIAN_POINT('',(-0.012,-0.00890398769160487,0.0200139334969666));
#1287=CARTESIAN_POINT('',(-0.017,-0.0088679979048069,0.0196614465776544));
#1288=CARTESIAN_POINT('',(-0.012,-0.0088679979048069,0.0196614465776544));
#1289=CARTESIAN_POINT('',(-0.017,-0.00892725197898242,0.0194235494381179));
#1290=CARTESIAN_POINT('',(-0.012,-0.00892725197898242,0.0194235494381179));
#1291=CARTESIAN_POINT('',(-0.012,-0.00849900367577694,0.0228397638708664));
#1292=CARTESIAN_POINT('',(-0.0136666666666667,-0.00849900367577694,0.0228397638708664));
#1293=CARTESIAN_POINT('',(-0.0153333333333333,-0.00849900367577694,0.0228397638708664));
#1294=CARTESIAN_POINT('',(-0.017,-0.00849900367577694,0.0228397638708664));
#1295=CARTESIAN_POINT('',(-0.027,2.81892564846231E-18,0.0172));
#1296=CARTESIAN_POINT('',(-0.017,-0.00788129489216878,0.0236749664727066));
#1297=CARTESIAN_POINT('',(-0.0153333333333333,-0.00788129489216878,0.0236749664727066));
#1298=CARTESIAN_POINT('',(-0.0136666666666667,-0.00788129489216878,0.0236749664727066));
#1299=CARTESIAN_POINT('',(-0.012,-0.00788129489216878,0.0236749664727066));
#1300=CARTESIAN_POINT('',(-0.017,-0.00788581675724956,0.0236695069284769));
#1301=CARTESIAN_POINT('',(-0.012,-0.00788581675724956,0.0236695069284769));
#1302=CARTESIAN_POINT('',(-0.017,-0.00763315620827299,0.0239746856776099));
#1303=CARTESIAN_POINT('',(-0.012,-0.00763315620827299,0.0239746856776099));
#1304=CARTESIAN_POINT('',(-0.017,-0.00739045515597449,0.0242203101053817));
#1305=CARTESIAN_POINT('',(-0.012,-0.00739045515597449,0.0242203101053817));
#1306=CARTESIAN_POINT('',(-0.017,-0.00717028573765985,0.0243993064084596));
#1307=CARTESIAN_POINT('',(-0.012,-0.00717028573765985,0.0243993064084596));
#1308=CARTESIAN_POINT('',(-0.027002,-0.00717028573765985,0.0243993064084596));
#1309=CARTESIAN_POINT('',(-0.017,-0.00717028573765985,0.0243993064084596));
#1310=CARTESIAN_POINT('',(-0.012,-0.00717028573765985,0.0243993064084596));
#1311=CARTESIAN_POINT('',(-0.017,-0.006606440864946,0.0248577086175303));
#1312=CARTESIAN_POINT('',(-0.012,-0.006606440864946,0.0248577086175303));
#1313=CARTESIAN_POINT('',(-0.017,-0.00563849482004699,0.0249764195590258));
#1314=CARTESIAN_POINT('',(-0.012,-0.00563849482004699,0.0249764195590258));
#1315=CARTESIAN_POINT('',(-0.017,-0.00509006828163802,0.0248744916392495));
#1316=CARTESIAN_POINT('',(-0.012,-0.00509006828163802,0.0248744916392495));
#1317=CARTESIAN_POINT('',(-0.017,-0.0047402335257028,0.0250848072976962));
#1318=CARTESIAN_POINT('',(-0.012,-0.0047402335257028,0.0250848072976962));
#1319=CARTESIAN_POINT('',(-0.027002,-0.0047402335257028,0.0250848072976962));
#1320=CARTESIAN_POINT('',(-0.017,-0.00197907039989222,0.0272064266316513));
#1321=CARTESIAN_POINT('',(-0.012,-0.00197907039989222,0.0272064266316513));
#1322=CARTESIAN_POINT('',(-0.017,-0.00227750130235723,0.0271449011847497));
#1323=CARTESIAN_POINT('',(-0.012,-0.00227750130235723,0.0271449011847497));
#1324=CARTESIAN_POINT('',(-0.017,-0.00281985893477687,0.0270010770861509));
#1325=CARTESIAN_POINT('',(-0.012,-0.00281985893477687,0.0270010770861509));
#1326=CARTESIAN_POINT('',(-0.017,-0.0035651707809165,0.026652014214058));
#1327=CARTESIAN_POINT('',(-0.012,-0.0035651707809165,0.026652014214058));
#1328=CARTESIAN_POINT('',(-0.017,-0.0040617645623572,0.0260962100289993));
#1329=CARTESIAN_POINT('',(-0.012,-0.0040617645623572,0.0260962100289993));
#1330=CARTESIAN_POINT('',(-0.017,-0.00430631861882231,0.0254858215338484));
#1331=CARTESIAN_POINT('',(-0.012,-0.00430631861882231,0.0254858215338484));
#1332=CARTESIAN_POINT('',(-0.017,-0.00453011588744924,0.0252111270206249));
#1333=CARTESIAN_POINT('',(-0.012,-0.00453011588744924,0.0252111270206249));
#1334=CARTESIAN_POINT('',(-0.017,-0.0047402335257028,0.0250848072976962));
#1335=CARTESIAN_POINT('',(-0.012,-0.0047402335257028,0.0250848072976962));
#1336=CARTESIAN_POINT('',(-0.012,-0.00202178785509072,0.0271976184098518));
#1337=CARTESIAN_POINT('',(-0.0136666666666667,-0.00202178785509072,0.0271976184098518));
#1338=CARTESIAN_POINT('',(-0.0153333333333333,-0.00202178785509072,0.0271976184098518));
#1339=CARTESIAN_POINT('',(-0.017,-0.00202178785509072,0.0271976184098518));
#1340=CARTESIAN_POINT('',(-0.027,2.81892564846231E-18,0.0172));
#1341=CARTESIAN_POINT('',(-0.017,-0.000994424361977117,0.0273514097635898));
#1342=CARTESIAN_POINT('',(-0.0153333333333333,-0.000994424361977117,0.0273514097635898));
#1343=CARTESIAN_POINT('',(-0.0136666666666667,-0.000994424361977117,0.0273514097635898));
#1344=CARTESIAN_POINT('',(-0.012,-0.000994424361977117,0.0273514097635898));
#1345=CARTESIAN_POINT('',(-0.017,-0.00100148228418734,0.027350746724305));
#1346=CARTESIAN_POINT('',(-0.012,-0.00100148228418734,0.027350746724305));
#1347=CARTESIAN_POINT('',(-0.017,-0.000607030333572644,0.0273878826997836));
#1348=CARTESIAN_POINT('',(-0.012,-0.000607030333572644,0.0273878826997836));
#1349=CARTESIAN_POINT('',(-0.017,-0.000261732075296827,0.0273899498383924));
#1350=CARTESIAN_POINT('',(-0.012,-0.000261732075296827,0.0273899498383924));
#1351=CARTESIAN_POINT('',(-0.017,2.05207131170849E-5,0.027360836049406));
#1352=CARTESIAN_POINT('',(-0.012,2.05207131170849E-5,0.027360836049406));
#1353=CARTESIAN_POINT('',(-0.027002,2.05207131170797E-5,0.027360836049406));
#1354=CARTESIAN_POINT('',(-0.017,2.05207131170766E-5,0.027360836049406));
#1355=CARTESIAN_POINT('',(-0.012,2.05207131170766E-5,0.027360836049406));
#1356=CARTESIAN_POINT('',(-0.017,0.000743358556695065,0.0272862768269175));
#1357=CARTESIAN_POINT('',(-0.012,0.000743358556695065,0.0272862768269175));
#1358=CARTESIAN_POINT('',(-0.017,0.00151174108059843,0.0266857769264793));
#1359=CARTESIAN_POINT('',(-0.012,0.00151174108059843,0.0266857769264793));
#1360=CARTESIAN_POINT('',(-0.017,0.00182746328162399,0.0262259068789216));
#1361=CARTESIAN_POINT('',(-0.012,0.00182746328162399,0.0262259068789216));
#1362=CARTESIAN_POINT('',(-0.017,0.00222354943811789,0.0261272519789824));
#1363=CARTESIAN_POINT('',(-0.012,0.00222354943811789,0.0261272519789824));
#1364=CARTESIAN_POINT('',(-0.027002,0.00222354943811788,0.0261272519789824));
#1365=CARTESIAN_POINT('',(-0.017,0.00567619802647688,0.0256750262268957));
#1366=CARTESIAN_POINT('',(-0.012,0.00567619802647688,0.0256750262268957));
#1367=CARTESIAN_POINT('',(-0.017,0.00542167045090643,0.0258425436810259));
#1368=CARTESIAN_POINT('',(-0.012,0.00542167045090643,0.0258425436810259));
#1369=CARTESIAN_POINT('',(-0.017,0.00493646669578015,0.026124349445319));
#1370=CARTESIAN_POINT('',(-0.012,0.00493646669578015,0.026124349445319));
#1371=CARTESIAN_POINT('',(-0.017,0.00416262691135725,0.0264045397819066));
#1372=CARTESIAN_POINT('',(-0.012,0.00416262691135725,0.0264045397819066));
#1373=CARTESIAN_POINT('',(-0.017,0.00341846917273939,0.0263626717039911));
#1374=CARTESIAN_POINT('',(-0.012,0.00341846917273939,0.0263626717039911));
#1375=CARTESIAN_POINT('',(-0.017,0.00281393349696651,0.0261039876916049));
#1376=CARTESIAN_POINT('',(-0.012,0.00281393349696651,0.0261039876916049));
#1377=CARTESIAN_POINT('',(-0.017,0.00246144657765436,0.0260679979048069));
#1378=CARTESIAN_POINT('',(-0.012,0.00246144657765436,0.0260679979048069));
#1379=CARTESIAN_POINT('',(-0.017,0.00222354943811788,0.0261272519789824));
#1380=CARTESIAN_POINT('',(-0.012,0.00222354943811788,0.0261272519789824));
#1381=CARTESIAN_POINT('',(-0.012,0.00563976387086639,0.025699003675777));
#1382=CARTESIAN_POINT('',(-0.0136666666666667,0.00563976387086639,0.0256990036757769));
#1383=CARTESIAN_POINT('',(-0.0153333333333333,0.00563976387086639,0.0256990036757769));
#1384=CARTESIAN_POINT('',(-0.017,0.00563976387086639,0.025699003675777));
#1385=CARTESIAN_POINT('',(-0.027,2.81892564846231E-18,0.0172));
#1386=CARTESIAN_POINT('',(-0.017,0.00647496647270657,0.0250812948921688));
#1387=CARTESIAN_POINT('',(-0.0153333333333333,0.00647496647270657,0.0250812948921688));
#1388=CARTESIAN_POINT('',(-0.0136666666666667,0.00647496647270657,0.0250812948921688));
#1389=CARTESIAN_POINT('',(-0.012,0.00647496647270657,0.0250812948921688));
#1390=CARTESIAN_POINT('',(-0.017,0.00646950692847633,0.0250858167572501));
#1391=CARTESIAN_POINT('',(-0.012,0.00646950692847633,0.0250858167572501));
#1392=CARTESIAN_POINT('',(-0.017,0.00677468567774215,0.0248331562081656));
#1393=CARTESIAN_POINT('',(-0.012,0.00677468567774215,0.0248331562081656));
#1394=CARTESIAN_POINT('',(-0.017,0.00702031010538165,0.0245904551559745));
#1395=CARTESIAN_POINT('',(-0.012,0.00702031010538165,0.0245904551559745));
#1396=CARTESIAN_POINT('',(-0.017,0.0071993064084596,0.0243702857376598));
#1397=CARTESIAN_POINT('',(-0.012,0.0071993064084596,0.0243702857376598));
#1398=CARTESIAN_POINT('',(-0.027002,0.00719930640845959,0.0243702857376599));
#1399=CARTESIAN_POINT('',(-0.017,0.00719930640845958,0.0243702857376598));
#1400=CARTESIAN_POINT('',(-0.012,0.00719930640845958,0.0243702857376598));
#1401=CARTESIAN_POINT('',(-0.017,0.00765770861753026,0.023806440864946));
#1402=CARTESIAN_POINT('',(-0.012,0.00765770861753026,0.023806440864946));
#1403=CARTESIAN_POINT('',(-0.017,0.00777641955902586,0.022838494820047));
#1404=CARTESIAN_POINT('',(-0.012,0.00777641955902586,0.022838494820047));
#1405=CARTESIAN_POINT('',(-0.017,0.00767449163924951,0.022290068281638));
#1406=CARTESIAN_POINT('',(-0.012,0.00767449163924951,0.022290068281638));
#1407=CARTESIAN_POINT('',(-0.017,0.0078848072976962,0.0219402335257028));
#1408=CARTESIAN_POINT('',(-0.012,0.0078848072976962,0.0219402335257028));
#1409=CARTESIAN_POINT('',(-0.027002,0.00788480729769619,0.0219402335257028));
#1410=CARTESIAN_POINT('',(-0.017,0.0100064266316513,0.0191790703998923));
#1411=CARTESIAN_POINT('',(-0.012,0.0100064266316513,0.0191790703998923));
#1412=CARTESIAN_POINT('',(-0.017,0.0099449011847494,0.0194775013023582));
#1413=CARTESIAN_POINT('',(-0.012,0.0099449011847494,0.0194775013023582));
#1414=CARTESIAN_POINT('',(-0.017,0.00980107708615099,0.0200198589347764));
#1415=CARTESIAN_POINT('',(-0.012,0.00980107708615099,0.0200198589347764));
#1416=CARTESIAN_POINT('',(-0.017,0.0094520142140579,0.0207651707809168));
#1417=CARTESIAN_POINT('',(-0.012,0.0094520142140579,0.0207651707809168));
#1418=CARTESIAN_POINT('',(-0.017,0.00889621002899934,0.0212617645623571));
#1419=CARTESIAN_POINT('',(-0.012,0.00889621002899934,0.0212617645623571));
#1420=CARTESIAN_POINT('',(-0.017,0.00828582153384839,0.0215063186188224));
#1421=CARTESIAN_POINT('',(-0.012,0.00828582153384839,0.0215063186188224));
#1422=CARTESIAN_POINT('',(-0.017,0.00801112702062487,0.0217301158874492));
#1423=CARTESIAN_POINT('',(-0.012,0.00801112702062487,0.0217301158874492));
#1424=CARTESIAN_POINT('',(-0.017,0.00788480729769619,0.0219402335257028));
#1425=CARTESIAN_POINT('',(-0.012,0.00788480729769619,0.0219402335257028));
#1426=CARTESIAN_POINT('',(-0.012,0.0099976184098518,0.0192217878550907));
#1427=CARTESIAN_POINT('',(-0.0136666666666667,0.0099976184098518,0.0192217878550907));
#1428=CARTESIAN_POINT('',(-0.0153333333333333,0.0099976184098518,0.0192217878550907));
#1429=CARTESIAN_POINT('',(-0.017,0.0099976184098518,0.0192217878550907));
#1430=CARTESIAN_POINT('',(-0.027,2.81892564846231E-18,0.0172));
#1431=CARTESIAN_POINT('',(-0.017,0.0101514097635898,0.0181944243619771));
#1432=CARTESIAN_POINT('',(-0.0153333333333333,0.0101514097635898,0.0181944243619771));
#1433=CARTESIAN_POINT('',(-0.0136666666666667,0.0101514097635898,0.0181944243619771));
#1434=CARTESIAN_POINT('',(-0.012,0.0101514097635898,0.0181944243619771));
#1435=CARTESIAN_POINT('',(-0.017,0.010150746724305,0.0182014822841868));
#1436=CARTESIAN_POINT('',(-0.012,0.010150746724305,0.0182014822841868));
#1437=CARTESIAN_POINT('',(-0.017,0.0101878826997815,0.0178070303335853));
#1438=CARTESIAN_POINT('',(-0.012,0.0101878826997815,0.0178070303335853));
#1439=CARTESIAN_POINT('',(-0.017,0.0101899498383924,0.0174617320752968));
#1440=CARTESIAN_POINT('',(-0.012,0.0101899498383924,0.0174617320752968));
#1441=CARTESIAN_POINT('',(-0.017,0.010160836049406,0.0171794792868829));
#1442=CARTESIAN_POINT('',(-0.012,0.010160836049406,0.0171794792868829));
#1443=CARTESIAN_POINT('',(-0.027002,0.010160836049406,0.0171794792868829));
#1444=CARTESIAN_POINT('',(-0.017,0.010160836049406,0.0171794792868829));
#1445=CARTESIAN_POINT('',(-0.012,0.010160836049406,0.0171794792868829));
#1446=CARTESIAN_POINT('',(-0.017,0.0100862768269175,0.0164566414433049));
#1447=CARTESIAN_POINT('',(-0.012,0.0100862768269175,0.0164566414433049));
#1448=CARTESIAN_POINT('',(-0.017,0.00948577692647932,0.0156882589194016));
#1449=CARTESIAN_POINT('',(-0.012,0.00948577692647932,0.0156882589194016));
#1450=CARTESIAN_POINT('',(-0.017,0.0090259068789216,0.015372536718376));
#1451=CARTESIAN_POINT('',(-0.012,0.0090259068789216,0.015372536718376));
#1452=CARTESIAN_POINT('',(-0.017,0.00892725197898242,0.0149764505618821));
#1453=CARTESIAN_POINT('',(-0.012,0.00892725197898242,0.0149764505618821));
#1454=MECHANICAL_DESIGN_GEOMETRIC_PRESENTATION_REPRESENTATION('',(#633),
#1455);
#1455=(
GEOMETRIC_REPRESENTATION_CONTEXT(3)
GLOBAL_UNCERTAINTY_ASSIGNED_CONTEXT((#1456))
GLOBAL_UNIT_ASSIGNED_CONTEXT((#1459,#1458,#1457))
REPRESENTATION_CONTEXT('Outer Focus Knob','TOP_LEVEL_ASSEMBLY_PART')
);
#1456=UNCERTAINTY_MEASURE_WITH_UNIT(LENGTH_MEASURE(2.E-5),#1459,
'DISTANCE_ACCURACY_VALUE','Maximum Tolerance applied to model');
#1457=(
NAMED_UNIT(*)
SI_UNIT($,.STERADIAN.)
SOLID_ANGLE_UNIT()
);
#1458=(
NAMED_UNIT(*)
PLANE_ANGLE_UNIT()
SI_UNIT($,.RADIAN.)
);
#1459=(
LENGTH_UNIT()
NAMED_UNIT(*)
SI_UNIT($,.METRE.)
);
#1460=PRODUCT_DEFINITION_SHAPE('','',#1461);
#1461=PRODUCT_DEFINITION('','',#1463,#1462);
#1462=PRODUCT_DEFINITION_CONTEXT('',#1469,'design');
#1463=PRODUCT_DEFINITION_FORMATION_WITH_SPECIFIED_SOURCE('','',#1465,
 .NOT_KNOWN.);
#1464=PRODUCT_RELATED_PRODUCT_CATEGORY('','',(#1465));
#1465=PRODUCT('Outer Focus Knob','Outer Focus Knob','Outer Focus Knob',
(#1467));
#1466=PRODUCT_CATEGORY('','');
#1467=PRODUCT_CONTEXT('',#1469,'mechanical');
#1468=APPLICATION_PROTOCOL_DEFINITION('international standard',
'ap242_managed_model_based_3d_engineering',2020,#1469);
#1469=APPLICATION_CONTEXT('managed model based 3d engineering');
ENDSEC;
END-ISO-10303-21;
