ISO-10303-21;
HEADER;
/* Generated by software containing ST-Developer
 * from STEP Tools, Inc. (www.steptools.com) 
 */
/* OPTION: using custom renumber hook */

FILE_DESCRIPTION(
/* description */ ('STEP AP242 Edition 2',
'CAx-IF Rec.Pracs.---Representation and Presentation of Product Manufa
cturing Information (PMI)---4.0---2014-10-13',
'CAx-IF Rec.Pracs.---3D Tessellated Geometry---0.4---2014-09-14','2;1',
'CAx-IF Rec.Pracs.---User Defined Attributes---1.5---2016-08-15'),
/* implementation_level */ '2;1');

FILE_NAME(
/* name */ 'maixcam2 mount - maixcam2 mount',
/* time_stamp */ '2026-09-20T10:56:55Z',
/* author */ (''),
/* organization */ (''),
/* preprocessor_version */ 'ST-DEVELOPER v20',
/* originating_system */ 'ONSHAPE BY PTC INC, 1.221',
/* authorisation */ '  ');

FILE_SCHEMA (('AP242_MANAGED_MODEL_BASED_3D_ENGINEERING_MIM_LF { 1 0 10303 442 3 1 4 }'));
ENDSEC;

DATA;
#10=SHAPE_REPRESENTATION_RELATIONSHIP('','',#493,#11);
#11=ADVANCED_BREP_SHAPE_REPRESENTATION('',(#491),#841);
#12=CYLINDRICAL_SURFACE('',#520,0.00875);
#13=CYLINDRICAL_SURFACE('',#523,0.00325);
#14=CYLINDRICAL_SURFACE('',#526,0.00875);
#15=CYLINDRICAL_SURFACE('',#529,0.00325);
#16=CYLINDRICAL_SURFACE('',#540,0.0025);
#17=CYLINDRICAL_SURFACE('',#541,0.0025);
#18=CYLINDRICAL_SURFACE('',#542,0.0025);
#19=CYLINDRICAL_SURFACE('',#543,0.0025);
#20=CYLINDRICAL_SURFACE('',#544,0.0025);
#21=CYLINDRICAL_SURFACE('',#545,0.0025);
#22=CYLINDRICAL_SURFACE('',#546,0.0025);
#23=CYLINDRICAL_SURFACE('',#547,0.0025);
#24=CYLINDRICAL_SURFACE('',#548,0.0075);
#25=CYLINDRICAL_SURFACE('',#549,0.0011);
#26=CYLINDRICAL_SURFACE('',#550,0.0011);
#27=CIRCLE('',#496,0.0025);
#28=CIRCLE('',#497,0.0025);
#29=CIRCLE('',#498,0.0025);
#30=CIRCLE('',#499,0.0025);
#31=CIRCLE('',#500,0.00875);
#32=CIRCLE('',#501,0.0025);
#33=CIRCLE('',#502,0.00325);
#34=CIRCLE('',#503,0.0025);
#35=CIRCLE('',#504,0.00875);
#36=CIRCLE('',#505,0.0025);
#37=CIRCLE('',#506,0.00325);
#38=CIRCLE('',#507,0.0025);
#39=CIRCLE('',#513,0.0011);
#40=CIRCLE('',#514,0.0011);
#41=CIRCLE('',#515,0.0075);
#42=CIRCLE('',#516,0.0025);
#43=CIRCLE('',#517,0.0025);
#44=CIRCLE('',#518,0.0025);
#45=CIRCLE('',#519,0.0025);
#46=CIRCLE('',#521,0.00875);
#47=CIRCLE('',#524,0.00325);
#48=CIRCLE('',#527,0.00875);
#49=CIRCLE('',#530,0.00325);
#50=CIRCLE('',#533,0.0011);
#51=CIRCLE('',#534,0.0011);
#52=CIRCLE('',#535,0.0075);
#53=CIRCLE('',#536,0.0025);
#54=CIRCLE('',#537,0.0025);
#55=CIRCLE('',#538,0.0025);
#56=CIRCLE('',#539,0.0025);
#57=ORIENTED_EDGE('',*,*,#189,.F.);
#58=ORIENTED_EDGE('',*,*,#190,.T.);
#59=ORIENTED_EDGE('',*,*,#191,.T.);
#60=ORIENTED_EDGE('',*,*,#192,.T.);
#61=ORIENTED_EDGE('',*,*,#193,.T.);
#62=ORIENTED_EDGE('',*,*,#194,.T.);
#63=ORIENTED_EDGE('',*,*,#195,.F.);
#64=ORIENTED_EDGE('',*,*,#196,.T.);
#65=ORIENTED_EDGE('',*,*,#197,.T.);
#66=ORIENTED_EDGE('',*,*,#198,.T.);
#67=ORIENTED_EDGE('',*,*,#199,.F.);
#68=ORIENTED_EDGE('',*,*,#200,.T.);
#69=ORIENTED_EDGE('',*,*,#201,.T.);
#70=ORIENTED_EDGE('',*,*,#202,.T.);
#71=ORIENTED_EDGE('',*,*,#203,.T.);
#72=ORIENTED_EDGE('',*,*,#204,.T.);
#73=ORIENTED_EDGE('',*,*,#205,.F.);
#74=ORIENTED_EDGE('',*,*,#206,.T.);
#75=ORIENTED_EDGE('',*,*,#207,.T.);
#76=ORIENTED_EDGE('',*,*,#208,.T.);
#77=ORIENTED_EDGE('',*,*,#209,.F.);
#78=ORIENTED_EDGE('',*,*,#210,.T.);
#79=ORIENTED_EDGE('',*,*,#189,.T.);
#80=ORIENTED_EDGE('',*,*,#211,.T.);
#81=ORIENTED_EDGE('',*,*,#195,.T.);
#82=ORIENTED_EDGE('',*,*,#212,.T.);
#83=ORIENTED_EDGE('',*,*,#213,.F.);
#84=ORIENTED_EDGE('',*,*,#214,.T.);
#85=ORIENTED_EDGE('',*,*,#193,.F.);
#86=ORIENTED_EDGE('',*,*,#215,.T.);
#87=ORIENTED_EDGE('',*,*,#216,.T.);
#88=ORIENTED_EDGE('',*,*,#217,.T.);
#89=ORIENTED_EDGE('',*,*,#191,.F.);
#90=ORIENTED_EDGE('',*,*,#218,.T.);
#91=ORIENTED_EDGE('',*,*,#219,.T.);
#92=ORIENTED_EDGE('',*,*,#220,.T.);
#93=ORIENTED_EDGE('',*,*,#221,.T.);
#94=ORIENTED_EDGE('',*,*,#222,.T.);
#95=ORIENTED_EDGE('',*,*,#223,.T.);
#96=ORIENTED_EDGE('',*,*,#219,.F.);
#97=ORIENTED_EDGE('',*,*,#224,.T.);
#98=ORIENTED_EDGE('',*,*,#209,.T.);
#99=ORIENTED_EDGE('',*,*,#225,.T.);
#100=ORIENTED_EDGE('',*,*,#213,.T.);
#101=ORIENTED_EDGE('',*,*,#226,.T.);
#102=ORIENTED_EDGE('',*,*,#216,.F.);
#103=ORIENTED_EDGE('',*,*,#227,.T.);
#104=ORIENTED_EDGE('',*,*,#203,.F.);
#105=ORIENTED_EDGE('',*,*,#228,.T.);
#106=ORIENTED_EDGE('',*,*,#229,.T.);
#107=ORIENTED_EDGE('',*,*,#230,.T.);
#108=ORIENTED_EDGE('',*,*,#205,.T.);
#109=ORIENTED_EDGE('',*,*,#231,.T.);
#110=ORIENTED_EDGE('',*,*,#232,.F.);
#111=ORIENTED_EDGE('',*,*,#233,.T.);
#112=ORIENTED_EDGE('',*,*,#206,.F.);
#113=ORIENTED_EDGE('',*,*,#233,.F.);
#114=ORIENTED_EDGE('',*,*,#234,.T.);
#115=ORIENTED_EDGE('',*,*,#235,.T.);
#116=ORIENTED_EDGE('',*,*,#236,.T.);
#117=ORIENTED_EDGE('',*,*,#237,.T.);
#118=ORIENTED_EDGE('',*,*,#207,.F.);
#119=ORIENTED_EDGE('',*,*,#235,.F.);
#120=ORIENTED_EDGE('',*,*,#238,.T.);
#121=ORIENTED_EDGE('',*,*,#239,.T.);
#122=ORIENTED_EDGE('',*,*,#197,.F.);
#123=ORIENTED_EDGE('',*,*,#240,.T.);
#124=ORIENTED_EDGE('',*,*,#199,.T.);
#125=ORIENTED_EDGE('',*,*,#241,.T.);
#126=ORIENTED_EDGE('',*,*,#242,.F.);
#127=ORIENTED_EDGE('',*,*,#243,.T.);
#128=ORIENTED_EDGE('',*,*,#200,.F.);
#129=ORIENTED_EDGE('',*,*,#243,.F.);
#130=ORIENTED_EDGE('',*,*,#244,.T.);
#131=ORIENTED_EDGE('',*,*,#245,.T.);
#132=ORIENTED_EDGE('',*,*,#246,.T.);
#133=ORIENTED_EDGE('',*,*,#247,.T.);
#134=ORIENTED_EDGE('',*,*,#201,.F.);
#135=ORIENTED_EDGE('',*,*,#245,.F.);
#136=ORIENTED_EDGE('',*,*,#248,.F.);
#137=ORIENTED_EDGE('',*,*,#249,.F.);
#138=ORIENTED_EDGE('',*,*,#250,.F.);
#139=ORIENTED_EDGE('',*,*,#229,.F.);
#140=ORIENTED_EDGE('',*,*,#251,.T.);
#141=ORIENTED_EDGE('',*,*,#246,.F.);
#142=ORIENTED_EDGE('',*,*,#244,.F.);
#143=ORIENTED_EDGE('',*,*,#242,.T.);
#144=ORIENTED_EDGE('',*,*,#252,.T.);
#145=ORIENTED_EDGE('',*,*,#238,.F.);
#146=ORIENTED_EDGE('',*,*,#253,.T.);
#147=ORIENTED_EDGE('',*,*,#236,.F.);
#148=ORIENTED_EDGE('',*,*,#234,.F.);
#149=ORIENTED_EDGE('',*,*,#232,.T.);
#150=ORIENTED_EDGE('',*,*,#254,.T.);
#151=ORIENTED_EDGE('',*,*,#224,.F.);
#152=ORIENTED_EDGE('',*,*,#218,.F.);
#153=ORIENTED_EDGE('',*,*,#190,.F.);
#154=ORIENTED_EDGE('',*,*,#210,.F.);
#155=ORIENTED_EDGE('',*,*,#227,.F.);
#156=ORIENTED_EDGE('',*,*,#215,.F.);
#157=ORIENTED_EDGE('',*,*,#192,.F.);
#158=ORIENTED_EDGE('',*,*,#220,.F.);
#159=ORIENTED_EDGE('',*,*,#226,.F.);
#160=ORIENTED_EDGE('',*,*,#212,.F.);
#161=ORIENTED_EDGE('',*,*,#194,.F.);
#162=ORIENTED_EDGE('',*,*,#217,.F.);
#163=ORIENTED_EDGE('',*,*,#225,.F.);
#164=ORIENTED_EDGE('',*,*,#211,.F.);
#165=ORIENTED_EDGE('',*,*,#196,.F.);
#166=ORIENTED_EDGE('',*,*,#214,.F.);
#167=ORIENTED_EDGE('',*,*,#252,.F.);
#168=ORIENTED_EDGE('',*,*,#241,.F.);
#169=ORIENTED_EDGE('',*,*,#198,.F.);
#170=ORIENTED_EDGE('',*,*,#239,.F.);
#171=ORIENTED_EDGE('',*,*,#251,.F.);
#172=ORIENTED_EDGE('',*,*,#228,.F.);
#173=ORIENTED_EDGE('',*,*,#202,.F.);
#174=ORIENTED_EDGE('',*,*,#247,.F.);
#175=ORIENTED_EDGE('',*,*,#253,.F.);
#176=ORIENTED_EDGE('',*,*,#240,.F.);
#177=ORIENTED_EDGE('',*,*,#208,.F.);
#178=ORIENTED_EDGE('',*,*,#237,.F.);
#179=ORIENTED_EDGE('',*,*,#254,.F.);
#180=ORIENTED_EDGE('',*,*,#231,.F.);
#181=ORIENTED_EDGE('',*,*,#204,.F.);
#182=ORIENTED_EDGE('',*,*,#230,.F.);
#183=ORIENTED_EDGE('',*,*,#223,.F.);
#184=ORIENTED_EDGE('',*,*,#250,.T.);
#185=ORIENTED_EDGE('',*,*,#222,.F.);
#186=ORIENTED_EDGE('',*,*,#249,.T.);
#187=ORIENTED_EDGE('',*,*,#221,.F.);
#188=ORIENTED_EDGE('',*,*,#248,.T.);
#189=EDGE_CURVE('',#255,#256,#301,.T.);
#190=EDGE_CURVE('',#255,#257,#27,.F.);
#191=EDGE_CURVE('',#257,#258,#302,.T.);
#192=EDGE_CURVE('',#258,#259,#28,.F.);
#193=EDGE_CURVE('',#259,#260,#303,.T.);
#194=EDGE_CURVE('',#260,#261,#29,.F.);
#195=EDGE_CURVE('',#262,#261,#304,.T.);
#196=EDGE_CURVE('',#262,#256,#30,.F.);
#197=EDGE_CURVE('',#263,#264,#31,.T.);
#198=EDGE_CURVE('',#264,#265,#32,.F.);
#199=EDGE_CURVE('',#266,#265,#305,.T.);
#200=EDGE_CURVE('',#266,#267,#33,.T.);
#201=EDGE_CURVE('',#267,#268,#306,.T.);
#202=EDGE_CURVE('',#268,#269,#34,.F.);
#203=EDGE_CURVE('',#269,#270,#35,.T.);
#204=EDGE_CURVE('',#270,#271,#36,.F.);
#205=EDGE_CURVE('',#272,#271,#307,.T.);
#206=EDGE_CURVE('',#272,#273,#37,.T.);
#207=EDGE_CURVE('',#273,#274,#308,.T.);
#208=EDGE_CURVE('',#274,#263,#38,.F.);
#209=EDGE_CURVE('',#275,#276,#309,.T.);
#210=EDGE_CURVE('',#275,#255,#310,.T.);
#211=EDGE_CURVE('',#256,#276,#311,.F.);
#212=EDGE_CURVE('',#261,#277,#312,.F.);
#213=EDGE_CURVE('',#278,#277,#313,.T.);
#214=EDGE_CURVE('',#278,#262,#314,.T.);
#215=EDGE_CURVE('',#259,#279,#315,.F.);
#216=EDGE_CURVE('',#279,#280,#316,.T.);
#217=EDGE_CURVE('',#280,#260,#317,.T.);
#218=EDGE_CURVE('',#257,#281,#318,.F.);
#219=EDGE_CURVE('',#281,#282,#319,.T.);
#220=EDGE_CURVE('',#282,#258,#320,.T.);
#221=EDGE_CURVE('',#283,#283,#39,.T.);
#222=EDGE_CURVE('',#284,#284,#40,.T.);
#223=EDGE_CURVE('',#285,#285,#41,.F.);
#224=EDGE_CURVE('',#281,#275,#42,.T.);
#225=EDGE_CURVE('',#276,#278,#43,.T.);
#226=EDGE_CURVE('',#277,#280,#44,.T.);
#227=EDGE_CURVE('',#279,#282,#45,.T.);
#228=EDGE_CURVE('',#269,#286,#321,.F.);
#229=EDGE_CURVE('',#286,#287,#46,.T.);
#230=EDGE_CURVE('',#287,#270,#322,.T.);
#231=EDGE_CURVE('',#271,#288,#323,.T.);
#232=EDGE_CURVE('',#289,#288,#324,.T.);
#233=EDGE_CURVE('',#289,#272,#325,.T.);
#234=EDGE_CURVE('',#289,#290,#47,.T.);
#235=EDGE_CURVE('',#290,#273,#326,.T.);
#236=EDGE_CURVE('',#290,#291,#327,.T.);
#237=EDGE_CURVE('',#291,#274,#328,.T.);
#238=EDGE_CURVE('',#292,#293,#48,.T.);
#239=EDGE_CURVE('',#293,#264,#329,.T.);
#240=EDGE_CURVE('',#263,#292,#330,.F.);
#241=EDGE_CURVE('',#265,#294,#331,.T.);
#242=EDGE_CURVE('',#295,#294,#332,.T.);
#243=EDGE_CURVE('',#295,#266,#333,.T.);
#244=EDGE_CURVE('',#295,#296,#49,.T.);
#245=EDGE_CURVE('',#296,#267,#334,.T.);
#246=EDGE_CURVE('',#296,#297,#335,.T.);
#247=EDGE_CURVE('',#297,#268,#336,.T.);
#248=EDGE_CURVE('',#298,#298,#50,.F.);
#249=EDGE_CURVE('',#299,#299,#51,.F.);
#250=EDGE_CURVE('',#300,#300,#52,.F.);
#251=EDGE_CURVE('',#286,#297,#53,.T.);
#252=EDGE_CURVE('',#294,#293,#54,.T.);
#253=EDGE_CURVE('',#292,#291,#55,.T.);
#254=EDGE_CURVE('',#288,#287,#56,.T.);
#255=VERTEX_POINT('',#704);
#256=VERTEX_POINT('',#705);
#257=VERTEX_POINT('',#707);
#258=VERTEX_POINT('',#709);
#259=VERTEX_POINT('',#711);
#260=VERTEX_POINT('',#713);
#261=VERTEX_POINT('',#715);
#262=VERTEX_POINT('',#717);
#263=VERTEX_POINT('',#720);
#264=VERTEX_POINT('',#721);
#265=VERTEX_POINT('',#723);
#266=VERTEX_POINT('',#725);
#267=VERTEX_POINT('',#727);
#268=VERTEX_POINT('',#729);
#269=VERTEX_POINT('',#731);
#270=VERTEX_POINT('',#733);
#271=VERTEX_POINT('',#735);
#272=VERTEX_POINT('',#737);
#273=VERTEX_POINT('',#739);
#274=VERTEX_POINT('',#741);
#275=VERTEX_POINT('',#745);
#276=VERTEX_POINT('',#746);
#277=VERTEX_POINT('',#751);
#278=VERTEX_POINT('',#753);
#279=VERTEX_POINT('',#757);
#280=VERTEX_POINT('',#759);
#281=VERTEX_POINT('',#763);
#282=VERTEX_POINT('',#765);
#283=VERTEX_POINT('',#769);
#284=VERTEX_POINT('',#771);
#285=VERTEX_POINT('',#773);
#286=VERTEX_POINT('',#780);
#287=VERTEX_POINT('',#782);
#288=VERTEX_POINT('',#786);
#289=VERTEX_POINT('',#788);
#290=VERTEX_POINT('',#792);
#291=VERTEX_POINT('',#796);
#292=VERTEX_POINT('',#800);
#293=VERTEX_POINT('',#801);
#294=VERTEX_POINT('',#806);
#295=VERTEX_POINT('',#808);
#296=VERTEX_POINT('',#812);
#297=VERTEX_POINT('',#816);
#298=VERTEX_POINT('',#820);
#299=VERTEX_POINT('',#822);
#300=VERTEX_POINT('',#824);
#301=LINE('',#703,#337);
#302=LINE('',#708,#338);
#303=LINE('',#712,#339);
#304=LINE('',#716,#340);
#305=LINE('',#724,#341);
#306=LINE('',#728,#342);
#307=LINE('',#736,#343);
#308=LINE('',#740,#344);
#309=LINE('',#744,#345);
#310=LINE('',#747,#346);
#311=LINE('',#748,#347);
#312=LINE('',#750,#348);
#313=LINE('',#752,#349);
#314=LINE('',#754,#350);
#315=LINE('',#756,#351);
#316=LINE('',#758,#352);
#317=LINE('',#760,#353);
#318=LINE('',#762,#354);
#319=LINE('',#764,#355);
#320=LINE('',#766,#356);
#321=LINE('',#779,#357);
#322=LINE('',#783,#358);
#323=LINE('',#785,#359);
#324=LINE('',#787,#360);
#325=LINE('',#789,#361);
#326=LINE('',#793,#362);
#327=LINE('',#795,#363);
#328=LINE('',#797,#364);
#329=LINE('',#802,#365);
#330=LINE('',#803,#366);
#331=LINE('',#805,#367);
#332=LINE('',#807,#368);
#333=LINE('',#809,#369);
#334=LINE('',#813,#370);
#335=LINE('',#815,#371);
#336=LINE('',#817,#372);
#337=VECTOR('',#555,1.);
#338=VECTOR('',#558,1.);
#339=VECTOR('',#561,1.);
#340=VECTOR('',#564,1.);
#341=VECTOR('',#571,1.);
#342=VECTOR('',#574,1.);
#343=VECTOR('',#581,1.);
#344=VECTOR('',#584,1.);
#345=VECTOR('',#589,1.);
#346=VECTOR('',#590,1.);
#347=VECTOR('',#591,1.);
#348=VECTOR('',#594,1.);
#349=VECTOR('',#595,1.);
#350=VECTOR('',#596,1.);
#351=VECTOR('',#599,1.);
#352=VECTOR('',#600,1.);
#353=VECTOR('',#601,1.);
#354=VECTOR('',#604,1.);
#355=VECTOR('',#605,1.);
#356=VECTOR('',#606,1.);
#357=VECTOR('',#625,1.);
#358=VECTOR('',#628,1.);
#359=VECTOR('',#631,1.);
#360=VECTOR('',#632,1.);
#361=VECTOR('',#633,1.);
#362=VECTOR('',#638,1.);
#363=VECTOR('',#641,1.);
#364=VECTOR('',#642,1.);
#365=VECTOR('',#647,1.);
#366=VECTOR('',#648,1.);
#367=VECTOR('',#651,1.);
#368=VECTOR('',#652,1.);
#369=VECTOR('',#653,1.);
#370=VECTOR('',#658,1.);
#371=VECTOR('',#661,1.);
#372=VECTOR('',#662,1.);
#373=EDGE_LOOP('',(#57,#58,#59,#60,#61,#62,#63,#64));
#374=EDGE_LOOP('',(#65,#66,#67,#68,#69,#70,#71,#72,#73,#74,#75,#76));
#375=EDGE_LOOP('',(#77,#78,#79,#80));
#376=EDGE_LOOP('',(#81,#82,#83,#84));
#377=EDGE_LOOP('',(#85,#86,#87,#88));
#378=EDGE_LOOP('',(#89,#90,#91,#92));
#379=EDGE_LOOP('',(#93));
#380=EDGE_LOOP('',(#94));
#381=EDGE_LOOP('',(#95));
#382=EDGE_LOOP('',(#96,#97,#98,#99,#100,#101,#102,#103));
#383=EDGE_LOOP('',(#104,#105,#106,#107));
#384=EDGE_LOOP('',(#108,#109,#110,#111));
#385=EDGE_LOOP('',(#112,#113,#114,#115));
#386=EDGE_LOOP('',(#116,#117,#118,#119));
#387=EDGE_LOOP('',(#120,#121,#122,#123));
#388=EDGE_LOOP('',(#124,#125,#126,#127));
#389=EDGE_LOOP('',(#128,#129,#130,#131));
#390=EDGE_LOOP('',(#132,#133,#134,#135));
#391=EDGE_LOOP('',(#136));
#392=EDGE_LOOP('',(#137));
#393=EDGE_LOOP('',(#138));
#394=EDGE_LOOP('',(#139,#140,#141,#142,#143,#144,#145,#146,#147,#148,#149,
#150));
#395=EDGE_LOOP('',(#151,#152,#153,#154));
#396=EDGE_LOOP('',(#155,#156,#157,#158));
#397=EDGE_LOOP('',(#159,#160,#161,#162));
#398=EDGE_LOOP('',(#163,#164,#165,#166));
#399=EDGE_LOOP('',(#167,#168,#169,#170));
#400=EDGE_LOOP('',(#171,#172,#173,#174));
#401=EDGE_LOOP('',(#175,#176,#177,#178));
#402=EDGE_LOOP('',(#179,#180,#181,#182));
#403=EDGE_LOOP('',(#183));
#404=EDGE_LOOP('',(#184));
#405=EDGE_LOOP('',(#185));
#406=EDGE_LOOP('',(#186));
#407=EDGE_LOOP('',(#187));
#408=EDGE_LOOP('',(#188));
#409=FACE_BOUND('',#373,.T.);
#410=FACE_BOUND('',#374,.T.);
#411=FACE_BOUND('',#375,.T.);
#412=FACE_BOUND('',#376,.T.);
#413=FACE_BOUND('',#377,.T.);
#414=FACE_BOUND('',#378,.T.);
#415=FACE_BOUND('',#379,.T.);
#416=FACE_BOUND('',#380,.T.);
#417=FACE_BOUND('',#381,.T.);
#418=FACE_BOUND('',#382,.T.);
#419=FACE_BOUND('',#383,.T.);
#420=FACE_BOUND('',#384,.T.);
#421=FACE_BOUND('',#385,.T.);
#422=FACE_BOUND('',#386,.T.);
#423=FACE_BOUND('',#387,.T.);
#424=FACE_BOUND('',#388,.T.);
#425=FACE_BOUND('',#389,.T.);
#426=FACE_BOUND('',#390,.T.);
#427=FACE_BOUND('',#391,.T.);
#428=FACE_BOUND('',#392,.T.);
#429=FACE_BOUND('',#393,.T.);
#430=FACE_BOUND('',#394,.T.);
#431=FACE_BOUND('',#395,.T.);
#432=FACE_BOUND('',#396,.T.);
#433=FACE_BOUND('',#397,.T.);
#434=FACE_BOUND('',#398,.T.);
#435=FACE_BOUND('',#399,.T.);
#436=FACE_BOUND('',#400,.T.);
#437=FACE_BOUND('',#401,.T.);
#438=FACE_BOUND('',#402,.T.);
#439=FACE_BOUND('',#403,.T.);
#440=FACE_BOUND('',#404,.T.);
#441=FACE_BOUND('',#405,.T.);
#442=FACE_BOUND('',#406,.T.);
#443=FACE_BOUND('',#407,.T.);
#444=FACE_BOUND('',#408,.T.);
#445=PLANE('',#495);
#446=PLANE('',#508);
#447=PLANE('',#509);
#448=PLANE('',#510);
#449=PLANE('',#511);
#450=PLANE('',#512);
#451=PLANE('',#522);
#452=PLANE('',#525);
#453=PLANE('',#528);
#454=PLANE('',#531);
#455=PLANE('',#532);
#456=ADVANCED_FACE('',(#409,#410),#445,.F.);
#457=ADVANCED_FACE('',(#411),#446,.F.);
#458=ADVANCED_FACE('',(#412),#447,.F.);
#459=ADVANCED_FACE('',(#413),#448,.T.);
#460=ADVANCED_FACE('',(#414),#449,.T.);
#461=ADVANCED_FACE('',(#415,#416,#417,#418),#450,.T.);
#462=ADVANCED_FACE('',(#419),#12,.F.);
#463=ADVANCED_FACE('',(#420),#451,.F.);
#464=ADVANCED_FACE('',(#421),#13,.F.);
#465=ADVANCED_FACE('',(#422),#452,.T.);
#466=ADVANCED_FACE('',(#423),#14,.F.);
#467=ADVANCED_FACE('',(#424),#453,.F.);
#468=ADVANCED_FACE('',(#425),#15,.F.);
#469=ADVANCED_FACE('',(#426),#454,.T.);
#470=ADVANCED_FACE('',(#427,#428,#429,#430),#455,.F.);
#471=ADVANCED_FACE('',(#431),#16,.T.);
#472=ADVANCED_FACE('',(#432),#17,.T.);
#473=ADVANCED_FACE('',(#433),#18,.T.);
#474=ADVANCED_FACE('',(#434),#19,.T.);
#475=ADVANCED_FACE('',(#435),#20,.T.);
#476=ADVANCED_FACE('',(#436),#21,.T.);
#477=ADVANCED_FACE('',(#437),#22,.T.);
#478=ADVANCED_FACE('',(#438),#23,.T.);
#479=ADVANCED_FACE('',(#439,#440),#24,.F.);
#480=ADVANCED_FACE('',(#441,#442),#25,.F.);
#481=ADVANCED_FACE('',(#443,#444),#26,.F.);
#482=CLOSED_SHELL('',(#456,#457,#458,#459,#460,#461,#462,#463,#464,#465,
#466,#467,#468,#469,#470,#471,#472,#473,#474,#475,#476,#477,#478,#479,#480,
#481));
#483=STYLED_ITEM('',(#484),#491);
#484=PRESENTATION_STYLE_ASSIGNMENT((#485));
#485=SURFACE_STYLE_USAGE(.BOTH.,#486);
#486=SURFACE_SIDE_STYLE('',(#487));
#487=SURFACE_STYLE_FILL_AREA(#488);
#488=FILL_AREA_STYLE('',(#489));
#489=FILL_AREA_STYLE_COLOUR('',#490);
#490=COLOUR_RGB('',0.615686274509804,0.811764705882353,0.929411764705882);
#491=MANIFOLD_SOLID_BREP('maixcam2 mount',#482);
#492=SHAPE_DEFINITION_REPRESENTATION(#846,#493);
#493=SHAPE_REPRESENTATION('maixcam2 mount',(#494),#841);
#494=AXIS2_PLACEMENT_3D('',#701,#551,#552);
#495=AXIS2_PLACEMENT_3D('',#702,#553,#554);
#496=AXIS2_PLACEMENT_3D('',#706,#556,#557);
#497=AXIS2_PLACEMENT_3D('',#710,#559,#560);
#498=AXIS2_PLACEMENT_3D('',#714,#562,#563);
#499=AXIS2_PLACEMENT_3D('',#718,#565,#566);
#500=AXIS2_PLACEMENT_3D('',#719,#567,#568);
#501=AXIS2_PLACEMENT_3D('',#722,#569,#570);
#502=AXIS2_PLACEMENT_3D('',#726,#572,#573);
#503=AXIS2_PLACEMENT_3D('',#730,#575,#576);
#504=AXIS2_PLACEMENT_3D('',#732,#577,#578);
#505=AXIS2_PLACEMENT_3D('',#734,#579,#580);
#506=AXIS2_PLACEMENT_3D('',#738,#582,#583);
#507=AXIS2_PLACEMENT_3D('',#742,#585,#586);
#508=AXIS2_PLACEMENT_3D('',#743,#587,#588);
#509=AXIS2_PLACEMENT_3D('',#749,#592,#593);
#510=AXIS2_PLACEMENT_3D('',#755,#597,#598);
#511=AXIS2_PLACEMENT_3D('',#761,#602,#603);
#512=AXIS2_PLACEMENT_3D('',#767,#607,#608);
#513=AXIS2_PLACEMENT_3D('',#768,#609,#610);
#514=AXIS2_PLACEMENT_3D('',#770,#611,#612);
#515=AXIS2_PLACEMENT_3D('',#772,#613,#614);
#516=AXIS2_PLACEMENT_3D('',#774,#615,#616);
#517=AXIS2_PLACEMENT_3D('',#775,#617,#618);
#518=AXIS2_PLACEMENT_3D('',#776,#619,#620);
#519=AXIS2_PLACEMENT_3D('',#777,#621,#622);
#520=AXIS2_PLACEMENT_3D('',#778,#623,#624);
#521=AXIS2_PLACEMENT_3D('',#781,#626,#627);
#522=AXIS2_PLACEMENT_3D('',#784,#629,#630);
#523=AXIS2_PLACEMENT_3D('',#790,#634,#635);
#524=AXIS2_PLACEMENT_3D('',#791,#636,#637);
#525=AXIS2_PLACEMENT_3D('',#794,#639,#640);
#526=AXIS2_PLACEMENT_3D('',#798,#643,#644);
#527=AXIS2_PLACEMENT_3D('',#799,#645,#646);
#528=AXIS2_PLACEMENT_3D('',#804,#649,#650);
#529=AXIS2_PLACEMENT_3D('',#810,#654,#655);
#530=AXIS2_PLACEMENT_3D('',#811,#656,#657);
#531=AXIS2_PLACEMENT_3D('',#814,#659,#660);
#532=AXIS2_PLACEMENT_3D('',#818,#663,#664);
#533=AXIS2_PLACEMENT_3D('',#819,#665,#666);
#534=AXIS2_PLACEMENT_3D('',#821,#667,#668);
#535=AXIS2_PLACEMENT_3D('',#823,#669,#670);
#536=AXIS2_PLACEMENT_3D('',#825,#671,#672);
#537=AXIS2_PLACEMENT_3D('',#826,#673,#674);
#538=AXIS2_PLACEMENT_3D('',#827,#675,#676);
#539=AXIS2_PLACEMENT_3D('',#828,#677,#678);
#540=AXIS2_PLACEMENT_3D('',#829,#679,#680);
#541=AXIS2_PLACEMENT_3D('',#830,#681,#682);
#542=AXIS2_PLACEMENT_3D('',#831,#683,#684);
#543=AXIS2_PLACEMENT_3D('',#832,#685,#686);
#544=AXIS2_PLACEMENT_3D('',#833,#687,#688);
#545=AXIS2_PLACEMENT_3D('',#834,#689,#690);
#546=AXIS2_PLACEMENT_3D('',#835,#691,#692);
#547=AXIS2_PLACEMENT_3D('',#836,#693,#694);
#548=AXIS2_PLACEMENT_3D('',#837,#695,#696);
#549=AXIS2_PLACEMENT_3D('',#838,#697,#698);
#550=AXIS2_PLACEMENT_3D('',#839,#699,#700);
#551=DIRECTION('',(0.,0.,1.));
#552=DIRECTION('',(1.,0.,0.));
#553=DIRECTION('',(0.,0.,1.));
#554=DIRECTION('',(1.,0.,0.));
#555=DIRECTION('',(-1.,0.,0.));
#556=DIRECTION('',(0.,0.,1.));
#557=DIRECTION('',(1.,0.,0.));
#558=DIRECTION('',(0.,-1.,0.));
#559=DIRECTION('',(0.,0.,1.));
#560=DIRECTION('',(1.,0.,0.));
#561=DIRECTION('',(-1.,0.,0.));
#562=DIRECTION('',(0.,0.,1.));
#563=DIRECTION('',(1.,0.,0.));
#564=DIRECTION('',(0.,-1.,0.));
#565=DIRECTION('',(0.,0.,1.));
#566=DIRECTION('',(1.,0.,0.));
#567=DIRECTION('',(0.,0.,1.));
#568=DIRECTION('',(1.,0.,0.));
#569=DIRECTION('',(0.,0.,1.));
#570=DIRECTION('',(1.,0.,0.));
#571=DIRECTION('',(-1.,0.,0.));
#572=DIRECTION('',(0.,0.,1.));
#573=DIRECTION('',(1.,0.,0.));
#574=DIRECTION('',(-1.,0.,0.));
#575=DIRECTION('',(0.,0.,1.));
#576=DIRECTION('',(1.,0.,0.));
#577=DIRECTION('',(0.,0.,1.));
#578=DIRECTION('',(1.,0.,0.));
#579=DIRECTION('',(0.,0.,1.));
#580=DIRECTION('',(1.,0.,0.));
#581=DIRECTION('',(1.,0.,0.));
#582=DIRECTION('',(0.,0.,1.));
#583=DIRECTION('',(1.,0.,0.));
#584=DIRECTION('',(1.,0.,0.));
#585=DIRECTION('',(0.,0.,1.));
#586=DIRECTION('',(1.,0.,0.));
#587=DIRECTION('',(0.,-1.,0.));
#588=DIRECTION('',(0.,0.,-1.));
#589=DIRECTION('',(-1.,0.,0.));
#590=DIRECTION('',(0.,0.,-1.));
#591=DIRECTION('',(0.,0.,-1.));
#592=DIRECTION('',(1.,0.,0.));
#593=DIRECTION('',(0.,0.,-1.));
#594=DIRECTION('',(0.,0.,-1.));
#595=DIRECTION('',(0.,-1.,0.));
#596=DIRECTION('',(0.,0.,-1.));
#597=DIRECTION('',(0.,-1.,0.));
#598=DIRECTION('',(0.,0.,-1.));
#599=DIRECTION('',(0.,0.,-1.));
#600=DIRECTION('',(-1.,0.,0.));
#601=DIRECTION('',(0.,0.,-1.));
#602=DIRECTION('',(1.,0.,0.));
#603=DIRECTION('',(0.,0.,-1.));
#604=DIRECTION('',(0.,0.,-1.));
#605=DIRECTION('',(0.,-1.,0.));
#606=DIRECTION('',(0.,0.,-1.));
#607=DIRECTION('',(0.,0.,1.));
#608=DIRECTION('',(1.,0.,0.));
#609=DIRECTION('',(0.,0.,-1.));
#610=DIRECTION('',(-1.,0.,0.));
#611=DIRECTION('',(0.,0.,-1.));
#612=DIRECTION('',(-1.,0.,0.));
#613=DIRECTION('',(0.,0.,1.));
#614=DIRECTION('',(1.,0.,0.));
#615=DIRECTION('',(0.,0.,1.));
#616=DIRECTION('',(1.,0.,0.));
#617=DIRECTION('',(0.,0.,1.));
#618=DIRECTION('',(1.,0.,0.));
#619=DIRECTION('',(0.,0.,1.));
#620=DIRECTION('',(1.,0.,0.));
#621=DIRECTION('',(0.,0.,1.));
#622=DIRECTION('',(1.,0.,0.));
#623=DIRECTION('',(0.,0.,-1.));
#624=DIRECTION('',(-1.,0.,0.));
#625=DIRECTION('',(0.,0.,-1.));
#626=DIRECTION('',(0.,0.,1.));
#627=DIRECTION('',(1.,0.,0.));
#628=DIRECTION('',(0.,0.,-1.));
#629=DIRECTION('',(0.,1.,0.));
#630=DIRECTION('',(0.,0.,1.));
#631=DIRECTION('',(0.,0.,1.));
#632=DIRECTION('',(1.,0.,0.));
#633=DIRECTION('',(0.,0.,-1.));
#634=DIRECTION('',(0.,0.,-1.));
#635=DIRECTION('',(-1.,0.,0.));
#636=DIRECTION('',(0.,0.,1.));
#637=DIRECTION('',(1.,0.,0.));
#638=DIRECTION('',(0.,0.,-1.));
#639=DIRECTION('',(0.,1.,0.));
#640=DIRECTION('',(0.,0.,1.));
#641=DIRECTION('',(1.,0.,0.));
#642=DIRECTION('',(0.,0.,-1.));
#643=DIRECTION('',(0.,0.,-1.));
#644=DIRECTION('',(-1.,0.,0.));
#645=DIRECTION('',(0.,0.,1.));
#646=DIRECTION('',(1.,0.,0.));
#647=DIRECTION('',(0.,0.,-1.));
#648=DIRECTION('',(0.,0.,-1.));
#649=DIRECTION('',(0.,-1.,0.));
#650=DIRECTION('',(0.,0.,-1.));
#651=DIRECTION('',(0.,0.,1.));
#652=DIRECTION('',(-1.,0.,0.));
#653=DIRECTION('',(0.,0.,-1.));
#654=DIRECTION('',(0.,0.,-1.));
#655=DIRECTION('',(-1.,0.,0.));
#656=DIRECTION('',(0.,0.,1.));
#657=DIRECTION('',(1.,0.,0.));
#658=DIRECTION('',(0.,0.,-1.));
#659=DIRECTION('',(0.,-1.,0.));
#660=DIRECTION('',(0.,0.,-1.));
#661=DIRECTION('',(-1.,0.,0.));
#662=DIRECTION('',(0.,0.,-1.));
#663=DIRECTION('',(0.,0.,1.));
#664=DIRECTION('',(1.,0.,0.));
#665=DIRECTION('',(0.,0.,1.));
#666=DIRECTION('',(1.,0.,0.));
#667=DIRECTION('',(0.,0.,1.));
#668=DIRECTION('',(1.,0.,0.));
#669=DIRECTION('',(0.,0.,1.));
#670=DIRECTION('',(1.,0.,0.));
#671=DIRECTION('',(0.,0.,1.));
#672=DIRECTION('',(1.,0.,0.));
#673=DIRECTION('',(0.,0.,1.));
#674=DIRECTION('',(1.,0.,0.));
#675=DIRECTION('',(0.,0.,1.));
#676=DIRECTION('',(1.,0.,0.));
#677=DIRECTION('',(0.,0.,1.));
#678=DIRECTION('',(1.,0.,0.));
#679=DIRECTION('',(0.,0.,1.));
#680=DIRECTION('',(1.,0.,0.));
#681=DIRECTION('',(0.,0.,-1.));
#682=DIRECTION('',(-1.,0.,0.));
#683=DIRECTION('',(0.,0.,1.));
#684=DIRECTION('',(1.,0.,0.));
#685=DIRECTION('',(0.,0.,-1.));
#686=DIRECTION('',(-1.,0.,0.));
#687=DIRECTION('',(0.,0.,-1.));
#688=DIRECTION('',(-1.,0.,0.));
#689=DIRECTION('',(0.,0.,-1.));
#690=DIRECTION('',(-1.,0.,0.));
#691=DIRECTION('',(0.,0.,-1.));
#692=DIRECTION('',(-1.,0.,0.));
#693=DIRECTION('',(0.,0.,-1.));
#694=DIRECTION('',(-1.,0.,0.));
#695=DIRECTION('',(0.,0.,-1.));
#696=DIRECTION('',(-1.,0.,0.));
#697=DIRECTION('',(0.,0.,-1.));
#698=DIRECTION('',(-1.,0.,0.));
#699=DIRECTION('',(0.,0.,-1.));
#700=DIRECTION('',(-1.,0.,0.));
#701=CARTESIAN_POINT('',(0.,0.,0.));
#702=CARTESIAN_POINT('',(0.,0.,0.));
#703=CARTESIAN_POINT('',(0.007,0.0095,0.));
#704=CARTESIAN_POINT('',(0.0115,0.0095,0.));
#705=CARTESIAN_POINT('',(-0.0115,0.0095,0.));
#706=CARTESIAN_POINT('',(0.0115,0.007,0.));
#707=CARTESIAN_POINT('',(0.014,0.007,0.));
#708=CARTESIAN_POINT('',(0.014,0.00475,0.));
#709=CARTESIAN_POINT('',(0.014,-0.007,0.));
#710=CARTESIAN_POINT('',(0.0115,-0.007,0.));
#711=CARTESIAN_POINT('',(0.0115,-0.0095,0.));
#712=CARTESIAN_POINT('',(0.007,-0.0095,0.));
#713=CARTESIAN_POINT('',(-0.0115,-0.0095,0.));
#714=CARTESIAN_POINT('',(-0.0115,-0.007,0.));
#715=CARTESIAN_POINT('',(-0.014,-0.007,0.));
#716=CARTESIAN_POINT('',(-0.014,0.00475,0.));
#717=CARTESIAN_POINT('',(-0.014,0.007,0.));
#718=CARTESIAN_POINT('',(-0.0115,0.007,0.));
#719=CARTESIAN_POINT('',(-1.67103619992886E-18,0.,0.));
#720=CARTESIAN_POINT('',(-0.00752075318003867,-0.00447222222222222,0.));
#721=CARTESIAN_POINT('',(0.00752075318003867,-0.00447222222222222,0.));
#722=CARTESIAN_POINT('',(0.00966953980290686,-0.00575,0.));
#723=CARTESIAN_POINT('',(0.00966953980290686,-0.00325,0.));
#724=CARTESIAN_POINT('',(0.00906201920231798,-0.00325,0.));
#725=CARTESIAN_POINT('',(0.01,-0.00325,0.));
#726=CARTESIAN_POINT('',(0.01,2.99856214614146E-18,0.));
#727=CARTESIAN_POINT('',(0.01,0.00325,0.));
#728=CARTESIAN_POINT('',(0.00906201920231798,0.00325,0.));
#729=CARTESIAN_POINT('',(0.00966953980290686,0.00325,0.));
#730=CARTESIAN_POINT('',(0.00966953980290686,0.00575,0.));
#731=CARTESIAN_POINT('',(0.00752075318003867,0.00447222222222222,0.));
#732=CARTESIAN_POINT('',(2.67891487313483E-19,-1.95156391047391E-18,0.));
#733=CARTESIAN_POINT('',(-0.00752075318003867,0.00447222222222222,0.));
#734=CARTESIAN_POINT('',(-0.00966953980290686,0.00575,0.));
#735=CARTESIAN_POINT('',(-0.00966953980290686,0.00325,0.));
#736=CARTESIAN_POINT('',(-0.00906201920231798,0.00325,0.));
#737=CARTESIAN_POINT('',(-0.01,0.00325,0.));
#738=CARTESIAN_POINT('',(-0.01,3.4144076855E-18,0.));
#739=CARTESIAN_POINT('',(-0.01,-0.00325,0.));
#740=CARTESIAN_POINT('',(-0.00906201920231798,-0.00325,0.));
#741=CARTESIAN_POINT('',(-0.00966953980290686,-0.00325,0.));
#742=CARTESIAN_POINT('',(-0.00966953980290686,-0.00575,0.));
#743=CARTESIAN_POINT('',(0.007,0.0095,0.003));
#744=CARTESIAN_POINT('',(0.007,0.0095,0.003));
#745=CARTESIAN_POINT('',(0.0115,0.0095,0.003));
#746=CARTESIAN_POINT('',(-0.0115,0.0095,0.003));
#747=CARTESIAN_POINT('',(0.0115,0.0095,0.));
#748=CARTESIAN_POINT('',(-0.0115,0.0095,0.003));
#749=CARTESIAN_POINT('',(-0.014,0.00475,0.003));
#750=CARTESIAN_POINT('',(-0.014,-0.007,0.003));
#751=CARTESIAN_POINT('',(-0.014,-0.007,0.003));
#752=CARTESIAN_POINT('',(-0.014,0.00475,0.003));
#753=CARTESIAN_POINT('',(-0.014,0.007,0.003));
#754=CARTESIAN_POINT('',(-0.014,0.007,0.003));
#755=CARTESIAN_POINT('',(0.007,-0.0095,0.003));
#756=CARTESIAN_POINT('',(0.0115,-0.0095,0.003));
#757=CARTESIAN_POINT('',(0.0115,-0.0095,0.003));
#758=CARTESIAN_POINT('',(0.007,-0.0095,0.003));
#759=CARTESIAN_POINT('',(-0.0115,-0.0095,0.003));
#760=CARTESIAN_POINT('',(-0.0115,-0.0095,0.));
#761=CARTESIAN_POINT('',(0.014,0.00475,0.003));
#762=CARTESIAN_POINT('',(0.014,0.007,0.003));
#763=CARTESIAN_POINT('',(0.014,0.007,0.003));
#764=CARTESIAN_POINT('',(0.014,0.00475,0.003));
#765=CARTESIAN_POINT('',(0.014,-0.007,0.003));
#766=CARTESIAN_POINT('',(0.014,-0.007,0.003));
#767=CARTESIAN_POINT('',(0.,0.,0.003));
#768=CARTESIAN_POINT('',(-0.01,-1.05322496755735E-18,0.003));
#769=CARTESIAN_POINT('',(-0.0111,-1.05322496755735E-18,0.003));
#770=CARTESIAN_POINT('',(0.01,1.85863229568944E-19,0.003));
#771=CARTESIAN_POINT('',(0.0089,1.85863229568944E-19,0.003));
#772=CARTESIAN_POINT('',(-1.10819077846605E-18,2.38524477946811E-18,0.003));
#773=CARTESIAN_POINT('',(0.0075,2.38524477946811E-18,0.003));
#774=CARTESIAN_POINT('',(0.0115,0.007,0.003));
#775=CARTESIAN_POINT('',(-0.0115,0.007,0.003));
#776=CARTESIAN_POINT('',(-0.0115,-0.007,0.003));
#777=CARTESIAN_POINT('',(0.0115,-0.007,0.003));
#778=CARTESIAN_POINT('',(2.67891487313483E-19,-1.95156391047391E-18,0.001));
#779=CARTESIAN_POINT('',(0.00752075318003867,0.00447222222222222,0.001));
#780=CARTESIAN_POINT('',(0.00752075318003867,0.00447222222222222,0.001));
#781=CARTESIAN_POINT('',(2.67891487313483E-19,-1.95156391047391E-18,0.001));
#782=CARTESIAN_POINT('',(-0.00752075318003867,0.00447222222222222,0.001));
#783=CARTESIAN_POINT('',(-0.00752075318003867,0.00447222222222222,0.001));
#784=CARTESIAN_POINT('',(-0.00906201920231798,0.00325,0.001));
#785=CARTESIAN_POINT('',(-0.00966953980290686,0.00325,0.001));
#786=CARTESIAN_POINT('',(-0.00966953980290686,0.00325,0.001));
#787=CARTESIAN_POINT('',(-0.00906201920231798,0.00325,0.001));
#788=CARTESIAN_POINT('',(-0.01,0.00325,0.001));
#789=CARTESIAN_POINT('',(-0.01,0.00325,0.001));
#790=CARTESIAN_POINT('',(-0.01,3.4144076855E-18,0.001));
#791=CARTESIAN_POINT('',(-0.01,3.4144076855E-18,0.001));
#792=CARTESIAN_POINT('',(-0.01,-0.00325,0.001));
#793=CARTESIAN_POINT('',(-0.01,-0.00325,0.001));
#794=CARTESIAN_POINT('',(-0.00906201920231798,-0.00325,0.001));
#795=CARTESIAN_POINT('',(-0.00906201920231798,-0.00325,0.001));
#796=CARTESIAN_POINT('',(-0.00966953980290686,-0.00325,0.001));
#797=CARTESIAN_POINT('',(-0.00966953980290686,-0.00325,0.001));
#798=CARTESIAN_POINT('',(-1.67103619992886E-18,0.,0.001));
#799=CARTESIAN_POINT('',(-1.67103619992886E-18,0.,0.001));
#800=CARTESIAN_POINT('',(-0.00752075318003867,-0.00447222222222222,0.001));
#801=CARTESIAN_POINT('',(0.00752075318003867,-0.00447222222222222,0.001));
#802=CARTESIAN_POINT('',(0.00752075318003867,-0.00447222222222222,0.001));
#803=CARTESIAN_POINT('',(-0.00752075318003867,-0.00447222222222222,0.001));
#804=CARTESIAN_POINT('',(0.00906201920231798,-0.00325,0.001));
#805=CARTESIAN_POINT('',(0.00966953980290686,-0.00325,0.001));
#806=CARTESIAN_POINT('',(0.00966953980290686,-0.00325,0.001));
#807=CARTESIAN_POINT('',(0.00906201920231798,-0.00325,0.001));
#808=CARTESIAN_POINT('',(0.01,-0.00325,0.001));
#809=CARTESIAN_POINT('',(0.01,-0.00325,0.001));
#810=CARTESIAN_POINT('',(0.01,2.99856214614146E-18,0.001));
#811=CARTESIAN_POINT('',(0.01,2.99856214614146E-18,0.001));
#812=CARTESIAN_POINT('',(0.01,0.00325,0.001));
#813=CARTESIAN_POINT('',(0.01,0.00325,0.001));
#814=CARTESIAN_POINT('',(0.00906201920231798,0.00325,0.001));
#815=CARTESIAN_POINT('',(0.00906201920231798,0.00325,0.001));
#816=CARTESIAN_POINT('',(0.00966953980290686,0.00325,0.001));
#817=CARTESIAN_POINT('',(0.00966953980290686,0.00325,0.001));
#818=CARTESIAN_POINT('',(0.,0.,0.001));
#819=CARTESIAN_POINT('',(-0.01,-1.05322496755735E-18,0.001));
#820=CARTESIAN_POINT('',(-0.0089,-1.05322496755735E-18,0.001));
#821=CARTESIAN_POINT('',(0.01,1.85863229568944E-19,0.001));
#822=CARTESIAN_POINT('',(0.0111,1.85863229568944E-19,0.001));
#823=CARTESIAN_POINT('',(-1.10819077846605E-18,2.38524477946811E-18,0.001));
#824=CARTESIAN_POINT('',(0.0075,2.38524477946811E-18,0.001));
#825=CARTESIAN_POINT('',(0.00966953980290686,0.00575,0.001));
#826=CARTESIAN_POINT('',(0.00966953980290686,-0.00575,0.001));
#827=CARTESIAN_POINT('',(-0.00966953980290686,-0.00575,0.001));
#828=CARTESIAN_POINT('',(-0.00966953980290686,0.00575,0.001));
#829=CARTESIAN_POINT('',(0.0115,0.007,0.003));
#830=CARTESIAN_POINT('',(0.0115,-0.007,0.003));
#831=CARTESIAN_POINT('',(-0.0115,-0.007,0.003));
#832=CARTESIAN_POINT('',(-0.0115,0.007,0.003));
#833=CARTESIAN_POINT('',(0.00966953980290686,-0.00575,0.001));
#834=CARTESIAN_POINT('',(0.00966953980290686,0.00575,0.001));
#835=CARTESIAN_POINT('',(-0.00966953980290686,-0.00575,0.001));
#836=CARTESIAN_POINT('',(-0.00966953980290686,0.00575,0.001));
#837=CARTESIAN_POINT('',(-1.10819077846605E-18,2.38524477946811E-18,0.033980575502926));
#838=CARTESIAN_POINT('',(0.01,1.85863229568944E-19,0.003));
#839=CARTESIAN_POINT('',(-0.01,-1.05322496755735E-18,0.003));
#840=MECHANICAL_DESIGN_GEOMETRIC_PRESENTATION_REPRESENTATION('',(#483),
#841);
#841=(
GEOMETRIC_REPRESENTATION_CONTEXT(3)
GLOBAL_UNCERTAINTY_ASSIGNED_CONTEXT((#842))
GLOBAL_UNIT_ASSIGNED_CONTEXT((#845,#844,#843))
REPRESENTATION_CONTEXT('maixcam2 mount','TOP_LEVEL_ASSEMBLY_PART')
);
#842=UNCERTAINTY_MEASURE_WITH_UNIT(LENGTH_MEASURE(1.E-8),#845,
'DISTANCE_ACCURACY_VALUE','Maximum Tolerance applied to model');
#843=(
NAMED_UNIT(*)
SI_UNIT($,.STERADIAN.)
SOLID_ANGLE_UNIT()
);
#844=(
NAMED_UNIT(*)
PLANE_ANGLE_UNIT()
SI_UNIT($,.RADIAN.)
);
#845=(
LENGTH_UNIT()
NAMED_UNIT(*)
SI_UNIT($,.METRE.)
);
#846=PRODUCT_DEFINITION_SHAPE('','',#847);
#847=PRODUCT_DEFINITION('','',#849,#848);
#848=PRODUCT_DEFINITION_CONTEXT('',#855,'design');
#849=PRODUCT_DEFINITION_FORMATION_WITH_SPECIFIED_SOURCE('','',#851,
 .NOT_KNOWN.);
#850=PRODUCT_RELATED_PRODUCT_CATEGORY('','',(#851));
#851=PRODUCT('maixcam2 mount','maixcam2 mount','maixcam2 mount',(#853));
#852=PRODUCT_CATEGORY('','');
#853=PRODUCT_CONTEXT('',#855,'mechanical');
#854=APPLICATION_PROTOCOL_DEFINITION('international standard',
'ap242_managed_model_based_3d_engineering',2020,#855);
#855=APPLICATION_CONTEXT('managed model based 3d engineering');
ENDSEC;
END-ISO-10303-21;
